<svg width="96" height="96" viewBox="0 0 96 96" fill="none" xmlns="http://www.w3.org/2000/svg">
<circle cx="48" cy="48" r="48" fill="url(#paint0_linear)"/>
<path d="M22.3373 44.662H28.1613V52.656H29.2253V56.1H27.8813V54H21.8613V56.1H20.5173V52.656C20.8346 52.6653 21.124 52.5533 21.3853 52.32C21.6466 52.0773 21.852 51.7693 22.0013 51.396C22.2253 50.8267 22.3373 50.01 22.3373 48.946V44.662ZM23.7653 46.006V48.946C23.7653 50.1127 23.658 50.9807 23.4433 51.55C23.2753 51.9793 23.0326 52.348 22.7153 52.656H26.7333V46.006H23.7653ZM30.8828 48.834C31.4894 48.246 32.2408 47.952 33.1368 47.952C34.0328 47.952 34.7794 48.246 35.3768 48.834C35.9834 49.4127 36.2868 50.1547 36.2868 51.06C36.2868 51.956 35.9834 52.7027 35.3768 53.3C34.7794 53.888 34.0328 54.182 33.1368 54.182C32.2408 54.182 31.4894 53.888 30.8828 53.3C30.2854 52.7027 29.9868 51.956 29.9868 51.06C29.9868 50.1547 30.2854 49.4127 30.8828 48.834ZM31.8628 52.446C32.1801 52.782 32.6048 52.95 33.1368 52.95C33.6688 52.95 34.0934 52.782 34.4108 52.446C34.7281 52.1007 34.8868 51.6433 34.8868 51.074C34.8868 50.4487 34.7141 49.9773 34.3688 49.66C34.0328 49.3427 33.6221 49.184 33.1368 49.184C32.6514 49.184 32.2361 49.3427 31.8908 49.66C31.5548 49.9773 31.3868 50.4487 31.3868 51.074C31.3868 51.6433 31.5454 52.1007 31.8628 52.446ZM42.1706 44.06H43.5706C43.4679 44.5453 43.2533 44.9653 42.9266 45.32C42.5999 45.6747 42.1986 45.9173 41.7226 46.048L40.7986 46.3C40.5559 46.3653 40.3693 46.4213 40.2386 46.468C40.1079 46.5147 39.9446 46.6033 39.7486 46.734C39.5619 46.8553 39.4033 47.0047 39.2726 47.182C38.9646 47.5927 38.8013 48.1247 38.7826 48.778H38.7966C39.2073 48.2273 39.8746 47.952 40.7986 47.952C41.6293 47.952 42.3153 48.232 42.8566 48.792C43.4259 49.38 43.7106 50.1267 43.7106 51.032C43.7106 51.9467 43.4073 52.7027 42.8006 53.3C42.2033 53.888 41.4566 54.182 40.5606 54.182C39.6646 54.182 38.9459 53.9207 38.4046 53.398C38.1059 53.118 37.8773 52.7727 37.7186 52.362C37.5599 51.9513 37.4666 51.6153 37.4386 51.354C37.4199 51.0833 37.4106 50.7567 37.4106 50.374C37.4106 48.5447 37.7093 47.196 38.3066 46.328C38.7546 45.6653 39.3426 45.2453 40.0706 45.068L41.0506 44.83C41.6946 44.6713 42.0679 44.4147 42.1706 44.06ZM39.2866 52.446C39.6039 52.782 40.0286 52.95 40.5606 52.95C41.0926 52.95 41.5173 52.782 41.8346 52.446C42.1519 52.1007 42.3106 51.6433 42.3106 51.074C42.3106 50.4487 42.1379 49.9773 41.7926 49.66C41.4566 49.3427 41.0459 49.184 40.5606 49.184C40.0753 49.184 39.6599 49.3427 39.3146 49.66C38.9786 49.9773 38.8106 50.4487 38.8106 51.074C38.8106 51.6433 38.9693 52.1007 39.2866 52.446ZM49.4544 48.792V48.106H50.8264V54H49.4544V53.384C48.9971 53.916 48.4091 54.182 47.6904 54.182C46.8224 54.182 46.1271 53.874 45.6044 53.258C45.0911 52.642 44.8344 51.9047 44.8344 51.046C44.8344 50.1127 45.1097 49.366 45.6604 48.806C46.2204 48.2367 46.9017 47.952 47.7044 47.952C48.4417 47.952 49.0251 48.232 49.4544 48.792ZM47.8724 49.184C47.3871 49.184 46.9904 49.366 46.6824 49.73C46.3837 50.094 46.2344 50.542 46.2344 51.074C46.2344 51.5967 46.3837 52.04 46.6824 52.404C46.9904 52.768 47.3871 52.95 47.8724 52.95C48.3391 52.95 48.7311 52.7867 49.0484 52.46C49.3751 52.1333 49.5384 51.676 49.5384 51.088C49.5384 50.4813 49.3751 50.0147 49.0484 49.688C48.7311 49.352 48.3391 49.184 47.8724 49.184ZM52.5662 48.106H54.8762C55.4642 48.106 55.9122 48.2227 56.2202 48.456C56.5842 48.7453 56.7662 49.1233 56.7662 49.59C56.7662 50.122 56.5329 50.5047 56.0662 50.738C56.3649 50.794 56.6309 50.9247 56.8642 51.13C57.1722 51.41 57.3262 51.788 57.3262 52.264C57.3262 52.8333 57.1116 53.2813 56.6822 53.608C56.3276 53.8693 55.8749 54 55.3242 54H52.5662V48.106ZM53.9382 50.402H54.6382C54.8809 50.402 55.0629 50.36 55.1842 50.276C55.3616 50.164 55.4502 50.0053 55.4502 49.8C55.4502 49.604 55.3709 49.45 55.2122 49.338C55.1002 49.2633 54.8996 49.226 54.6102 49.226H53.9382V50.402ZM53.9382 52.88H54.9602C55.2682 52.88 55.5062 52.824 55.6742 52.712C55.8609 52.5907 55.9542 52.418 55.9542 52.194C55.9542 51.9513 55.8656 51.7787 55.6882 51.676C55.5296 51.5733 55.3009 51.522 55.0022 51.522H53.9382V52.88ZM58.7596 48.106H60.1316V51.452L64.1636 47.574V54H62.7916V50.57L58.7596 54.448V48.106ZM69.9563 49.366H68.2343V54H66.8623V49.366H65.1403V48.106H69.9563V49.366ZM70.9412 54V48.106H72.3132V50.192H73.0972C73.3492 50.192 73.5546 50.2013 73.7132 50.22C73.8719 50.2293 74.0632 50.2807 74.2872 50.374C74.5112 50.4673 74.7072 50.6073 74.8752 50.794C75.1832 51.1393 75.3372 51.5687 75.3372 52.082C75.3372 52.67 75.1599 53.1413 74.8052 53.496C74.6466 53.6547 74.4552 53.776 74.2312 53.86C74.0166 53.9347 73.8346 53.9767 73.6852 53.986C73.5452 53.9953 73.3446 54 73.0832 54H70.9412ZM72.3132 52.824H72.9432C73.2792 52.824 73.5172 52.782 73.6572 52.698C73.8626 52.5487 73.9652 52.348 73.9652 52.096C73.9652 51.8347 73.8672 51.6387 73.6712 51.508C73.5219 51.4147 73.2839 51.368 72.9572 51.368H72.3132V52.824ZM33.0003 63.792V63.106H34.3723V69H33.0003V68.384C32.543 68.916 31.955 69.182 31.2363 69.182C30.3683 69.182 29.673 68.874 29.1503 68.258C28.637 67.642 28.3803 66.9047 28.3803 66.046C28.3803 65.1127 28.6556 64.366 29.2063 63.806C29.7663 63.2367 30.4476 62.952 31.2503 62.952C31.9876 62.952 32.571 63.232 33.0003 63.792ZM31.4183 64.184C30.933 64.184 30.5363 64.366 30.2283 64.73C29.9296 65.094 29.7803 65.542 29.7803 66.074C29.7803 66.5967 29.9296 67.04 30.2283 67.404C30.5363 67.768 30.933 67.95 31.4183 67.95C31.885 67.95 32.277 67.7867 32.5943 67.46C32.921 67.1333 33.0843 66.676 33.0843 66.088C33.0843 65.4813 32.921 65.0147 32.5943 64.688C32.277 64.352 31.885 64.184 31.4183 64.184ZM36.1121 69V63.106H37.4841V65.29H39.9201V63.106H41.2921V69H39.9201V66.55H37.4841V69H36.1121ZM47.3421 63.792V63.106H48.7141V69H47.3421V68.384C46.8848 68.916 46.2968 69.182 45.5781 69.182C44.7101 69.182 44.0148 68.874 43.4921 68.258C42.9788 67.642 42.7221 66.9047 42.7221 66.046C42.7221 65.1127 42.9974 64.366 43.5481 63.806C44.1081 63.2367 44.7894 62.952 45.5921 62.952C46.3294 62.952 46.9128 63.232 47.3421 63.792ZM45.7601 64.184C45.2748 64.184 44.8781 64.366 44.5701 64.73C44.2714 65.094 44.1221 65.542 44.1221 66.074C44.1221 66.5967 44.2714 67.04 44.5701 67.404C44.8781 67.768 45.2748 67.95 45.7601 67.95C46.2268 67.95 46.6188 67.7867 46.9361 67.46C47.2628 67.1333 47.4261 66.676 47.4261 66.088C47.4261 65.4813 47.2628 65.0147 46.9361 64.688C46.6188 64.352 46.2268 64.184 45.7601 64.184ZM55.2979 63.106V69H53.9259V64.366H52.1899V66.704C52.1899 67.432 52.0033 67.9967 51.6299 68.398C51.1539 68.93 50.5099 69.1307 49.6979 69V67.74C50.0993 67.8333 50.4213 67.7447 50.6639 67.474C50.8039 67.306 50.8739 67.0493 50.8739 66.704V63.106H55.2979ZM57.6181 63.834C58.2248 63.246 58.9761 62.952 59.8721 62.952C60.7681 62.952 61.5148 63.246 62.1121 63.834C62.7188 64.4127 63.0221 65.1547 63.0221 66.06C63.0221 66.956 62.7188 67.7027 62.1121 68.3C61.5148 68.888 60.7681 69.182 59.8721 69.182C58.9761 69.182 58.2248 68.888 57.6181 68.3C57.0208 67.7027 56.7221 66.956 56.7221 66.06C56.7221 65.1547 57.0208 64.4127 57.6181 63.834ZM58.5981 67.446C58.9154 67.782 59.3401 67.95 59.8721 67.95C60.4041 67.95 60.8288 67.782 61.1461 67.446C61.4634 67.1007 61.6221 66.6433 61.6221 66.074C61.6221 65.4487 61.4494 64.9773 61.1041 64.66C60.7681 64.3427 60.3574 64.184 59.8721 64.184C59.3868 64.184 58.9714 64.3427 58.6261 64.66C58.2901 64.9773 58.1221 65.4487 58.1221 66.074C58.1221 66.6433 58.2808 67.1007 58.5981 67.446ZM64.4539 69V63.106H68.0659V64.366H65.8259V69H64.4539Z" fill="white"/>
<path d="M40 30.6744V27.3256H46.2673V21H49.7327V27.3256H56V30.6744H49.7327V37H46.2673V30.6744H40Z" fill="white"/>
<defs>
<linearGradient id="paint0_linear" x1="-34.8632" y1="-105.75" x2="127.607" y2="-100.422" gradientUnits="userSpaceOnUse">
<stop stop-color="#7AE05F"/>
<stop offset="1" stop-color="#4EAF81"/>
</linearGradient>
</defs>
</svg>
