<svg width="28" height="28" viewBox="0 0 28 28" fill="none" xmlns="http://www.w3.org/2000/svg">
<g clip-path="url(#clip0)">
<path d="M25.8895 10.7909L23.9258 4.24512C23.478 2.75232 22.1305 1.75 20.5728 1.75H7.42725C5.86951 1.75 4.52196 2.75232 4.07421 4.24512L2.11048 10.7909C0.870508 11.3297 0 12.5637 0 14V21C0 21.9664 0.78357 22.75 1.75 22.75H1.75011L1.75 24.4999C1.75 25.4664 2.53346 26.25 3.5 26.25H5.25011C6.21654 26.25 7.00011 25.4664 7.00011 24.5L6.99936 22.75H21L20.9999 24.4999C20.9999 25.4664 21.7834 26.25 22.7499 26.25H24.5C25.4665 26.25 26.25 25.4664 26.25 24.5V22.7501L26.2494 22.75H26.25C27.2164 22.75 28 21.9664 28 21V14C28 12.5637 27.1295 11.3297 25.8895 10.7908L25.8895 10.7909ZM7.42719 5.25H20.5727L22.1477 10.5H5.85215L7.42719 5.25H7.42719ZM6.99995 18.375C6.03341 18.375 5.24995 17.5914 5.24995 16.625C5.24995 15.6585 6.03341 14.875 6.99995 14.875C7.96648 14.875 8.74995 15.6585 8.74995 16.625C8.74995 17.5914 7.96648 18.375 6.99995 18.375ZM20.9999 18.375C20.0334 18.375 19.2499 17.5914 19.2499 16.625C19.2499 15.6585 20.0334 14.875 20.9999 14.875C21.9665 14.875 22.7499 15.6585 22.7499 16.625C22.7499 17.5914 21.9665 18.375 20.9999 18.375Z" fill="url(#paint0_linear)"/>
</g>
<defs>
<linearGradient id="paint0_linear" x1="1.37083" y1="-6.82501" x2="31.3011" y2="-5.78473" gradientUnits="userSpaceOnUse">
<stop stop-color="#6536A1"/>
<stop offset="1" stop-color="#3F0B81"/>
</linearGradient>
<clipPath id="clip0">
<rect width="28" height="28" fill="white"/>
</clipPath>
</defs>
</svg>
