<svg width="28" height="28" viewBox="0 0 28 28" fill="none" xmlns="http://www.w3.org/2000/svg">
<path fill-rule="evenodd" clip-rule="evenodd" d="M16.0651 13.999L27.4827 2.30286C27.7322 2.04542 27.8701 1.6999 27.8664 1.34142C27.8626 0.982947 27.7176 0.640366 27.4628 0.388181C27.3369 0.263491 27.1876 0.165054 27.0234 0.0984201C26.8592 0.0317858 26.6834 -0.00162656 26.5062 6.08688e-05C26.329 0.0017483 26.154 0.0385289 25.9911 0.108278C25.8282 0.178027 25.6808 0.279281 25.5573 0.406347L14.1596 12.0844L2.29007 0.388181C2.16412 0.263601 2.01478 0.165207 1.85061 0.0986416C1.68644 0.0320762 1.51071 -0.00129394 1.33356 0.000393164C1.15641 0.00208027 0.981322 0.0388195 0.818448 0.1085C0.655573 0.17818 0.508135 0.27939 0.384582 0.406347C0.134857 0.663552 -0.00333667 1.00898 6.12078e-05 1.36745C0.00345908 1.72593 0.148137 2.06849 0.402692 2.32092L12.255 13.999L0.402692 25.677C0.148137 25.9295 0.00345908 26.2721 6.12078e-05 26.6306C-0.00333667 26.9891 0.134857 27.3345 0.384582 27.5917C0.50801 27.7189 0.655391 27.8203 0.818282 27.8901C0.981172 27.9599 1.15635 27.9968 1.33356 27.9984C1.51077 28.0001 1.68653 27.9667 1.85072 27.9C2.01491 27.8333 2.16424 27.7346 2.29007 27.6098L14.1596 15.9137L25.5573 27.5917C25.6823 27.7209 25.832 27.8236 25.9976 27.8938C26.1631 27.9639 26.3411 28 26.5209 28C26.6962 28.0007 26.8699 27.9665 27.0319 27.8995C27.1939 27.8325 27.341 27.734 27.4646 27.6098C27.7194 27.3576 27.8644 27.0151 27.8681 26.6566C27.8719 26.2982 27.734 25.9526 27.4845 25.6952L16.0651 13.999Z" fill="url(#paint0_linear)"/>
<defs>
<linearGradient id="paint0_linear" x1="-10.1206" y1="-30.8437" x2="37.0441" y2="-29.3044" gradientUnits="userSpaceOnUse">
<stop stop-color="#7AE05F"/>
<stop offset="1" stop-color="#4EAF81"/>
</linearGradient>
</defs>
</svg>
