<svg width="14" height="16" viewBox="0 0 14 16" fill="none" xmlns="http://www.w3.org/2000/svg">
<path d="M8.98174 0H2.55548C1.61663 0 0.852534 0.764626 0.852534 1.70291V7.99998H0.686176C0.307264 7.99998 0 8.30698 0 8.68622V12.8478C0 13.227 0.307264 13.534 0.686176 13.534H0.852534V14.2971C0.852534 15.2364 1.61663 16 2.55545 16H11.3237C12.262 16 13.0261 15.2364 13.0261 14.2971V4.03034L8.98174 0ZM1.13521 9.25784C1.37504 9.21968 1.68748 9.19821 2.01731 9.19821C2.5654 9.19821 2.92082 9.29657 3.19931 9.50627C3.49901 9.72908 3.68727 10.0848 3.68727 10.5942C3.68727 11.1465 3.48616 11.5277 3.20767 11.7631C2.90379 12.0157 2.44122 12.1355 1.87611 12.1355C1.53775 12.1355 1.29792 12.114 1.13524 12.0926V9.25784H1.13521ZM11.3238 14.9571H2.55548C2.19193 14.9571 1.89592 14.6611 1.89592 14.2971V13.534H10.0698C10.4487 13.534 10.7561 13.227 10.7561 12.8478V8.68622C10.7561 8.30698 10.4488 7.99998 10.0698 7.99998H1.89592V1.70291C1.89592 1.33993 2.19193 1.04391 2.55548 1.04391L8.59158 1.03761V3.26877C8.59158 3.92046 9.12036 4.44974 9.77248 4.44974L11.9582 4.44347L11.9828 14.2971C11.9828 14.6611 11.6873 14.9571 11.3238 14.9571ZM3.98431 10.6841C3.98431 9.81908 4.53665 9.17259 5.38889 9.17259C6.2754 9.17259 6.75918 9.8363 6.75918 10.6328C6.75918 11.579 6.18544 12.1527 5.3418 12.1527C4.48541 12.1527 3.98431 11.5063 3.98431 10.6841ZM8.66635 11.6088C8.86327 11.6088 9.0816 11.5659 9.21026 11.5146L9.30859 12.0241C9.18882 12.0842 8.91896 12.1486 8.56802 12.1486C7.5701 12.1486 7.05626 11.5277 7.05626 10.7056C7.05626 9.72071 7.75866 9.17262 8.63203 9.17262C8.97046 9.17262 9.22725 9.24112 9.34283 9.30075L9.21022 9.81908C9.07738 9.76306 8.89327 9.71185 8.66213 9.71185C8.14381 9.71185 7.7414 10.0246 7.7414 10.6669C7.74144 11.2448 8.08394 11.6088 8.66635 11.6088Z" fill="white"/>
<path d="M2.99351 10.6156C2.99769 10.0158 2.64652 9.69934 2.08556 9.69934C1.93987 9.69934 1.84572 9.71188 1.79004 9.72493V11.613C1.84572 11.6261 1.93572 11.6261 2.01706 11.6261C2.60806 11.6303 2.99351 11.305 2.99351 10.6156Z" fill="white"/>
<path d="M6.07004 10.6538C6.07004 10.136 5.82161 9.69043 5.37205 9.69043C4.93092 9.69043 4.67383 10.1104 4.67383 10.6711C4.67383 11.2364 4.93951 11.6344 5.37626 11.6344C5.81743 11.6344 6.07004 11.2149 6.07004 10.6538Z" fill="white"/>
</svg>
