<svg width="22" height="22" viewBox="0 0 22 22" fill="none" xmlns="http://www.w3.org/2000/svg">
<g clip-path="url(#clip0)">
<path fill-rule="evenodd" clip-rule="evenodd" d="M21.4379 3.59326L18.3002 0.537706C18.1263 0.367385 17.9191 0.232112 17.6905 0.139798C17.4619 0.047483 17.2166 0 16.9689 0C16.7211 0 16.4758 0.047483 16.2472 0.139798C16.0187 0.232112 15.8114 0.367385 15.6375 0.537706L0.575522 15.2044C0.00573769 15.7605 0.0241153 17.111 0.0241153 17.111V21.9999L5.04516 21.3888C5.72116 21.3682 6.37587 21.1556 6.92736 20.7777L21.4379 6.18437C21.7911 5.83936 21.9891 5.37387 21.9891 4.88881C21.9891 4.40376 21.7911 3.93826 21.4379 3.59326ZM5.04582 19.5555L1.90755 16.4999L16.9695 1.83326L20.1071 4.88881L5.04582 19.5555Z" fill="black"/>
</g>
<defs>
<clipPath id="clip0">
<rect width="22" height="22" fill="white"/>
</clipPath>
</defs>
</svg>
