<svg width="16" height="16" viewBox="0 0 16 16" fill="none" xmlns="http://www.w3.org/2000/svg">
<path fill-rule="evenodd" clip-rule="evenodd" d="M4.85017 0.468631C5.16192 0.168572 5.58475 0 6.02563 0H14.3374C14.7782 0 15.2011 0.168571 15.5128 0.468631C15.8246 0.768692 15.9997 1.17566 15.9997 1.60001V14.4001C15.9997 14.8244 15.8246 15.2314 15.5128 15.5314C15.2011 15.8315 14.7782 16.0001 14.3374 16.0001H6.02563C5.58475 16.0001 5.16192 15.8315 4.85017 15.5314C4.53842 15.2314 4.36328 14.8244 4.36328 14.4001V11.2001C4.36328 10.7582 4.73541 10.4001 5.19445 10.4001C5.6535 10.4001 6.02563 10.7582 6.02563 11.2001V14.4001H14.3374V1.60001H6.02563L6.02563 4.80002C6.02563 5.24185 5.6535 5.60003 5.19445 5.60003C4.73541 5.60003 4.36328 5.24185 4.36328 4.80002V1.60001C4.36328 1.17566 4.53842 0.768691 4.85017 0.468631Z" fill="url(#paint0_linear)"/>
<path fill-rule="evenodd" clip-rule="evenodd" d="M8.10959 4.59074C8.41728 4.28779 8.91614 4.28779 9.22382 4.59074L12.375 7.69343C12.3751 7.69355 12.3752 7.69367 12.3754 7.69379C12.3762 7.69463 12.3771 7.69548 12.3779 7.69632C12.4522 7.77011 12.5083 7.85492 12.5463 7.94538C12.5844 8.03581 12.6056 8.13487 12.6061 8.23875C12.6061 8.23994 12.6061 8.24114 12.6061 8.24233C12.6061 8.24353 12.6061 8.24472 12.6061 8.24591C12.6051 8.45656 12.5189 8.64737 12.3796 8.78662C12.3781 8.78821 12.3765 8.78979 12.3749 8.79136L9.22382 11.8939C8.91614 12.1969 8.41728 12.1969 8.10959 11.8939C7.8019 11.591 7.8019 11.0998 8.10959 10.7968L9.91612 9.01809H0.787883C0.352747 9.01809 0 8.67077 0 8.24233C0 7.81389 0.352747 7.46657 0.787883 7.46657H9.91612L8.10959 5.68783C7.8019 5.38488 7.8019 4.89369 8.10959 4.59074Z" fill="url(#paint1_linear)"/>
<defs>
<linearGradient id="paint0_linear" x1="4.93298" y1="-5.60004" x2="17.3805" y2="-5.32472" gradientUnits="userSpaceOnUse">
<stop stop-color="#6536A1"/>
<stop offset="1" stop-color="#3F0B81"/>
</linearGradient>
<linearGradient id="paint1_linear" x1="0.617175" y1="1.64836" x2="14.0757" y2="2.31348" gradientUnits="userSpaceOnUse">
<stop stop-color="#6536A1"/>
<stop offset="1" stop-color="#3F0B81"/>
</linearGradient>
</defs>
</svg>
