<svg width="70" height="57" viewBox="0 0 70 57" fill="none" xmlns="http://www.w3.org/2000/svg">
<path opacity="0.4" d="M48.0488 26.8199L39.2861 34.4227L34.0827 30.9677C33.2301 30.3451 31.9314 30.4722 31.2099 31.2395L26.8242 35.6592C25.0315 37.47 27.9873 40.8418 29.9725 38.838L33.1208 35.6592L38.193 39.1142C38.9626 39.6316 40.0732 39.5702 40.7859 38.9827L49.5486 31.3798L53.2435 34.5543C55.3161 36.3169 58.2807 32.9408 56.1163 31.1036L50.9129 26.6752C50.2307 26.1052 48.7047 26.2367 48.0401 26.8155L48.0488 26.8199ZM37.2048 13.1575C33.6061 13.1575 30.6459 16.1259 30.6459 19.7344C30.6459 23.3429 33.6061 26.3113 37.2048 26.3113C40.8034 26.3113 43.7637 23.3429 43.7637 19.7344C43.7637 16.1259 40.8034 13.1575 37.2048 13.1575ZM37.2048 17.5421C38.4379 17.5421 39.3911 18.4979 39.3911 19.7344C39.3911 20.9709 38.4379 21.9267 37.2048 21.9267C35.9717 21.9267 35.0185 20.9709 35.0185 19.7344C35.0185 18.4979 35.9717 17.5421 37.2048 17.5421ZM14.5197 17.6737L3.58825 21.497C0.732945 22.6019 -0.666286 25.8553 0.308804 28.6088L9.19829 53.4957C10.2827 56.5561 13.6758 57.5295 16.4393 56.6526L22.5872 54.7321C25.3288 53.8771 23.8684 49.6109 21.2229 50.4922L15.0707 52.5442C14.1524 52.838 13.4616 52.4565 13.2954 51.9961L4.55022 27.2408C4.28787 26.4779 4.35783 25.8903 5.10117 25.601L16.0327 21.9092C18.9536 21.1199 17.0952 16.7704 14.5285 17.6693L14.5197 17.6737ZM34.6949 0.46418C31.4417 -0.859962 27.655 0.749178 26.3345 4.01569L13.6102 35.5101C12.2897 38.7766 13.9469 42.4465 17.2045 43.7707L48.6085 56.5298C51.8661 57.8452 55.4735 56.3106 56.794 53.0528L69.5183 21.554C70.8388 18.2875 69.3609 14.5387 66.1076 13.2233L34.6949 0.46418ZM33.0552 4.52868L64.4679 17.2878C65.548 17.7263 65.9109 18.8224 65.4736 19.9098L52.7494 51.4042C52.3121 52.4916 51.337 52.9037 50.257 52.4565L18.8399 39.7105C17.7642 39.2721 17.222 38.2461 17.6593 37.1587L30.3835 5.6599C30.8208 4.57691 31.9752 4.09023 33.0508 4.52868H33.0552Z" fill="#CEBFE1"/>
</svg>
