<svg width="28" height="28" viewBox="0 0 28 28" fill="none" xmlns="http://www.w3.org/2000/svg">
<g clip-path="url(#clip0)">
<path d="M23.3381 26.3363V24.6092C23.9997 24.2996 24.4592 23.6278 24.4592 22.8502C24.4592 21.7797 23.5883 20.9088 22.5178 20.9088C21.4473 20.9088 20.5764 21.7797 20.5764 22.8502C20.5764 23.6278 21.0359 24.2996 21.6975 24.6092V26.3363C20.1167 25.9644 18.9358 24.5432 18.9358 22.8502C18.9358 20.875 20.5426 19.2682 22.5178 19.2682C22.7985 19.2682 23.0711 19.3017 23.3332 19.363V5.58731H17.4539V26.3504H15.8132V2.3349H14.4815V0H3.24579V2.3349H1.91406V28L26.0678 27.9908V26.3502H23.3383V26.3363H23.3381ZM21.2188 17.2721H19.5781V14.9387H21.2188V17.2721ZM21.2188 12.6055H19.5781V10.2721H21.2188V12.6055ZM11.7213 14.9389V17.2723H10.0807V14.9389H11.7213ZM10.0807 12.6055V10.2721H11.7213V12.6055H10.0807ZM11.7213 19.6055V21.9389H10.0807V19.6055H11.7213ZM11.7213 7.93887H10.0807V5.60547H11.7213V7.93887ZM5.99725 5.60547H7.63788V7.93887H5.99725V5.60547ZM5.99725 10.2721H7.63788V12.6055H5.99725V10.2721ZM5.99725 14.9389H7.63788V17.2723H5.99725V14.9389ZM5.99725 19.6055H7.63788V21.9389H5.99725V19.6055Z" fill="url(#paint0_linear)"/>
</g>
<defs>
<linearGradient id="paint0_linear" x1="3.09659" y1="-9.80002" x2="28.9288" y2="-9.12232" gradientUnits="userSpaceOnUse">
<stop stop-color="#6536A1"/>
<stop offset="1" stop-color="#3F0B81"/>
</linearGradient>
<clipPath id="clip0">
<rect width="28" height="28" fill="white"/>
</clipPath>
</defs>
</svg>
