<svg width="18" height="12" viewBox="0 0 18 12" fill="none" xmlns="http://www.w3.org/2000/svg">
<path d="M16.1626 3.61084C15.8616 3.61084 15.6177 3.85482 15.6177 4.15576V7.86281C15.6177 8.16378 15.3737 8.40777 15.0728 8.40777H2.92729C2.62631 8.40777 2.38236 8.16378 2.38236 7.86281V4.1558C2.38236 3.85482 2.13838 3.61088 1.83744 3.61088H0.66375C0.297176 3.61088 0 3.90805 0 4.27462V9.8927C0 10.1937 0.243984 10.4376 0.544922 10.4376H2.32031V11.072C2.32031 11.3569 2.5392 11.6028 2.82379 11.6154C3.12588 11.6286 3.375 11.3876 3.375 11.0885V10.4376H14.625V11.072C14.625 11.3569 14.8439 11.6028 15.1285 11.6154C15.4306 11.6287 15.6797 11.3877 15.6797 11.0885V10.4377H17.4551C17.7561 10.4377 18 10.1937 18 9.89274V4.27459C18 3.90802 17.7028 3.61084 17.3363 3.61084H16.1626Z" fill="#4B2679"/>
<path d="M3.43776 4.27718V5.25111H8.47361V0.459387C8.17285 0.175184 7.7681 0 7.32418 0H3.78103C2.85881 0 2.10425 0.754558 2.10425 1.67678V2.60269C2.867 2.77808 3.43776 3.46201 3.43776 4.27718Z" fill="#4B2679"/>
<path d="M8.47356 6.30737H3.43774V6.5683V7.35717H8.47542C8.47458 7.34504 8.47356 7.33295 8.47356 7.32061V6.5683V6.30737Z" fill="#4B2679"/>
<path d="M14.5635 4.27721C14.5635 3.46184 15.1344 2.7778 15.8974 2.60262V1.67678C15.8974 0.754558 15.1428 0 14.2206 0H10.6775C10.2336 0 9.82884 0.175148 9.52808 0.459387V5.25111H14.5635V4.27721Z" fill="#4B2679"/>
<path d="M14.5633 6.5683V6.30737H9.52795V6.5683V7.32061C9.52795 7.33295 9.52693 7.34504 9.52612 7.35717H14.5634V6.5683H14.5633Z" fill="#4B2679"/>
</svg>
