<svg width="12" height="12" viewBox="0 0 12 12" fill="none" xmlns="http://www.w3.org/2000/svg">
<path d="M4.46567 12C4.07453 12 3.70408 11.826 3.4667 11.526L0.254012 7.47901C0.154685 7.35403 0.0821695 7.21161 0.040612 7.05989C-0.000945585 6.90818 -0.0107306 6.75014 0.0118162 6.59482C0.0343629 6.43949 0.0887993 6.28993 0.172013 6.15468C0.255228 6.01942 0.365588 5.90113 0.496784 5.80656C0.627934 5.7116 0.777451 5.64225 0.936767 5.60249C1.09608 5.56272 1.26206 5.55331 1.4252 5.57482C1.58833 5.59632 1.74541 5.6483 1.88744 5.72778C2.02946 5.80727 2.15363 5.91269 2.25284 6.03802L4.36676 8.69884L9.68168 0.562076C9.85795 0.293422 10.1388 0.102387 10.4626 0.0308751C10.7864 -0.040637 11.1267 0.0132126 11.409 0.180612C11.9961 0.528644 12.1768 1.26586 11.81 1.82648L5.53027 11.4359C5.42307 11.6007 5.27531 11.7381 5.09982 11.8361C4.92432 11.9341 4.7264 11.9897 4.52321 11.9983C4.50343 12 4.48545 12 4.46567 12Z" fill="#4B2679"/>
</svg>
