<svg width="28" height="28" viewBox="0 0 28 28" fill="none" xmlns="http://www.w3.org/2000/svg">
<g clip-path="url(#clip0)">
<path d="M14.0565 5.91675L3.29053 16.5808V27.1797C3.29053 27.6331 3.64654 28.0001 4.0999 28.0001H9.94397V18.8432C9.94397 18.3898 10.3219 18.0338 10.7752 18.0338H17.3377C17.7911 18.0338 18.158 18.3898 18.158 18.8432V28H23.9002C24.3536 28 24.7096 27.633 24.7096 27.1797V16.5808L14.0565 5.91675ZM14.0565 16.3822C12.2474 16.3822 10.7752 14.9106 10.7752 13.101C10.7752 11.2914 12.2474 9.81974 14.0565 9.81974C15.865 9.81974 17.3377 11.2914 17.3377 13.101C17.3377 14.9107 15.865 16.3822 14.0565 16.3822Z" fill="url(#paint0_linear)"/>
<path d="M14.0566 11.4603C13.1514 11.4603 12.416 12.1965 12.416 13.101C12.416 14.0054 13.1514 14.7416 14.0566 14.7416C14.9619 14.7416 15.6973 14.0054 15.6973 13.101C15.6973 12.1965 14.9619 11.4603 14.0566 11.4603Z" fill="url(#paint1_linear)"/>
<path d="M16.5703 19.6962H11.6484V27.9999H16.5703V19.6962Z" fill="url(#paint2_linear)"/>
<path d="M27.8206 12.998C27.82 12.9967 27.8199 12.9953 27.8194 12.994C27.5348 12.2921 20.3448 5.24584 19.798 4.69919L15.7958 0.696938C14.8665 -0.232313 13.2451 -0.232313 12.3159 0.696938C11.7255 1.28734 0.4752 12.2645 0.17945 12.9939C0.178958 12.9952 0.178848 12.9968 0.178848 12.9968C-0.180066 13.8862 -0.000307932 14.9423 0.718669 15.6612C0.924458 15.8674 1.16235 16.0129 1.41161 16.1283L13.4759 4.17687C13.7963 3.85645 14.3155 3.85645 14.6359 4.17687L26.5948 16.1358C26.8445 16.0166 27.0788 15.8626 27.2802 15.6612C27.9991 14.9423 28.1789 13.8861 27.8206 12.998Z" fill="url(#paint3_linear)"/>
<path d="M23.8999 1.64929H20.6187C20.1823 1.64929 19.8343 1.95915 19.8081 2.38883L24.7093 7.30097V2.43679C24.7093 1.98338 24.3533 1.64929 23.8999 1.64929Z" fill="url(#paint4_linear)"/>
</g>
<defs>
<linearGradient id="paint0_linear" x1="4.33917" y1="-1.81242" x2="27.2425" y2="-1.13683" gradientUnits="userSpaceOnUse">
<stop stop-color="#6536A1"/>
<stop offset="1" stop-color="#3F0B81"/>
</linearGradient>
<linearGradient id="paint1_linear" x1="12.5767" y1="10.3119" x2="16.0851" y2="10.4186" gradientUnits="userSpaceOnUse">
<stop stop-color="#6536A1"/>
<stop offset="1" stop-color="#3F0B81"/>
</linearGradient>
<linearGradient id="paint2_linear" x1="11.8894" y1="16.7898" x2="17.1552" y2="16.8848" gradientUnits="userSpaceOnUse">
<stop stop-color="#6536A1"/>
<stop offset="1" stop-color="#3F0B81"/>
</linearGradient>
<linearGradient id="paint3_linear" x1="1.37035" y1="-5.64753" x2="31.2535" y2="-4.07048" gradientUnits="userSpaceOnUse">
<stop stop-color="#6536A1"/>
<stop offset="1" stop-color="#3F0B81"/>
</linearGradient>
<linearGradient id="paint4_linear" x1="20.0481" y1="-0.328799" x2="25.2898" y2="-0.190553" gradientUnits="userSpaceOnUse">
<stop stop-color="#6536A1"/>
<stop offset="1" stop-color="#3F0B81"/>
</linearGradient>
<clipPath id="clip0">
<rect width="28" height="28" fill="white"/>
</clipPath>
</defs>
</svg>
