<svg width="13" height="17" viewBox="0 0 13 17" fill="none" xmlns="http://www.w3.org/2000/svg">
<path d="M11.8318 4.67072e-06H1.12145C0.974332 -0.000420528 0.828576 0.0281893 0.692534 0.0841946C0.556492 0.1402 0.432839 0.2225 0.32866 0.326378C0.224482 0.430257 0.141825 0.553672 0.0854275 0.689552C0.0290298 0.825431 -6.14441e-07 0.971104 0 1.11822V1.53513H12.9532V1.11822C12.9532 0.971104 12.9242 0.825431 12.8678 0.689552C12.8114 0.553672 12.7287 0.430257 12.6246 0.326378C12.5204 0.2225 12.3967 0.1402 12.2607 0.0841946C12.1247 0.0281893 11.9789 -0.000420528 11.8318 4.67072e-06Z" fill="#4B2679"/>
<path d="M0 14.8829C-6.14441e-07 15.03 0.0290298 15.1757 0.0854275 15.3116C0.141825 15.4474 0.224482 15.5708 0.32866 15.6747C0.432839 15.7786 0.556492 15.8609 0.692534 15.9169C0.828576 15.9729 0.974332 16.0015 1.12145 16.0011H11.8318C11.9789 16.0015 12.1247 15.9729 12.2607 15.9169C12.3967 15.8609 12.5204 15.7786 12.6246 15.6747C12.7287 15.5708 12.8114 15.4474 12.8678 15.3116C12.9242 15.1757 12.9532 15.03 12.9532 14.8829V2.02338H0V14.8829ZM8.05052 2.92506C8.3062 2.92506 8.55614 3.00088 8.76873 3.14293C8.98132 3.28497 9.14701 3.48687 9.24486 3.72309C9.3427 3.95931 9.3683 4.21923 9.31842 4.47C9.26854 4.72077 9.14542 4.95111 8.96463 5.1319C8.78383 5.31269 8.55349 5.43582 8.30272 5.4857C8.05196 5.53558 7.79203 5.50998 7.55581 5.41213C7.3196 5.31429 7.1177 5.14859 6.97565 4.93601C6.8336 4.72342 6.75779 4.47348 6.75779 4.2178C6.75693 4.04749 6.78974 3.87869 6.85433 3.7211C6.91891 3.56351 7.014 3.42024 7.13413 3.29951C7.25425 3.17879 7.39705 3.08299 7.55432 3.01762C7.71158 2.95225 7.88021 2.9186 8.05052 2.9186V2.92506ZM5.52969 7.27189C5.52883 7.08379 5.5653 6.89738 5.63698 6.72347C5.70867 6.54956 5.81414 6.3916 5.9473 6.25874C6.08047 6.12589 6.23866 6.02076 6.41273 5.94947C6.5868 5.87818 6.77329 5.84213 6.96139 5.84342H9.15582C9.53325 5.84342 9.89528 5.99313 10.1625 6.25972C10.4297 6.5263 10.5802 6.88799 10.5811 7.26543V9.39844C10.5836 9.51085 10.546 9.62048 10.4749 9.70758C10.4038 9.79468 10.3039 9.85353 10.1932 9.87353C10.1278 9.88435 10.0607 9.88075 9.99675 9.86295C9.9328 9.84516 9.87351 9.81362 9.82303 9.77052C9.77255 9.72743 9.73209 9.67383 9.70449 9.61346C9.67688 9.5531 9.6628 9.48744 9.66321 9.42107V7.51751C9.66238 7.4672 9.64203 7.41918 9.60645 7.3836C9.57086 7.34802 9.52285 7.32766 9.47254 7.32683C9.44737 7.32639 9.42238 7.33103 9.39905 7.34046C9.37572 7.34988 9.35452 7.36391 9.33673 7.38171C9.31894 7.3995 9.30491 7.4207 9.29548 7.44403C9.28605 7.46736 9.28142 7.49235 9.28186 7.51751V13.5384C9.27155 13.6689 9.21243 13.7908 9.11629 13.8796C9.02015 13.9684 8.89405 14.0178 8.76315 14.0178C8.63224 14.0178 8.50614 13.9684 8.41 13.8796C8.31386 13.7908 8.25474 13.6689 8.24443 13.5384V10.8011C8.24796 10.7742 8.2457 10.7468 8.23781 10.7209C8.22993 10.6949 8.21659 10.6709 8.19869 10.6505C8.1808 10.6301 8.15875 10.6138 8.13404 10.6026C8.10932 10.5914 8.0825 10.5856 8.05537 10.5856C8.02824 10.5856 8.00142 10.5914 7.9767 10.6026C7.95199 10.6138 7.92995 10.6301 7.91205 10.6505C7.89415 10.6709 7.88082 10.6949 7.87293 10.7209C7.86504 10.7468 7.86278 10.7742 7.86631 10.8011V13.5384C7.86631 13.6756 7.81183 13.8071 7.71486 13.9041C7.61788 14.0011 7.48636 14.0555 7.34921 14.0555C7.21147 14.0555 7.07927 14.0013 6.98127 13.9045C6.88327 13.8077 6.82736 13.6762 6.82565 13.5384V7.51751C6.82652 7.49278 6.8224 7.46813 6.81353 7.44503C6.80466 7.42193 6.79123 7.40085 6.77404 7.38305C6.75685 7.36526 6.73624 7.35111 6.71346 7.34145C6.69068 7.33179 6.66618 7.32682 6.64144 7.32683C6.61613 7.3264 6.59099 7.33102 6.56748 7.34041C6.54397 7.3498 6.52256 7.36378 6.50452 7.38153C6.48646 7.39927 6.47213 7.42044 6.46235 7.44379C6.45256 7.46713 6.44753 7.4922 6.44753 7.51751V9.41137C6.45049 9.5224 6.4142 9.63091 6.34503 9.71781C6.27587 9.80471 6.17826 9.86443 6.0694 9.88645C6.00352 9.89775 5.93597 9.89452 5.87146 9.87699C5.80696 9.85945 5.74707 9.82804 5.69597 9.78495C5.64487 9.74185 5.60381 9.68812 5.57564 9.6275C5.54748 9.56688 5.5329 9.50084 5.53292 9.43399L5.52969 7.27189ZM1.24749 7.09091L2.07808 5.75616C2.10209 5.72343 2.13348 5.69681 2.16969 5.67846C2.20591 5.66012 2.24593 5.65056 2.28653 5.65056C2.32713 5.65056 2.36715 5.66012 2.40337 5.67846C2.43958 5.69681 2.47097 5.72343 2.49498 5.75616L3.32557 7.09091C3.34713 7.12825 3.35847 7.1706 3.35847 7.21372C3.35847 7.25683 3.34713 7.29919 3.32557 7.33653C3.30543 7.37405 3.27565 7.40551 3.23929 7.42767C3.20292 7.44983 3.16131 7.46188 3.11873 7.46257H1.46726C1.42403 7.46232 1.38166 7.4505 1.34453 7.42836C1.30741 7.40622 1.27688 7.37455 1.25611 7.33664C1.23534 7.29873 1.22509 7.25595 1.22641 7.21275C1.22774 7.16954 1.2406 7.12747 1.26365 7.09091H1.24749ZM1.24749 8.68098C1.26866 8.64363 1.29913 8.6124 1.33594 8.59031C1.37275 8.56823 1.41465 8.55604 1.45756 8.55493H3.12842C3.171 8.55563 3.21262 8.56767 3.24898 8.58983C3.28534 8.61199 3.31513 8.64346 3.33526 8.68098C3.35682 8.71831 3.36817 8.76067 3.36817 8.80378C3.36817 8.8469 3.35682 8.88926 3.33526 8.9266L2.50468 10.2613C2.48268 10.2962 2.45213 10.325 2.41594 10.3447C2.37974 10.3645 2.33909 10.3748 2.29784 10.3745C2.25615 10.3747 2.21507 10.3645 2.17837 10.3447C2.14166 10.325 2.11051 10.2963 2.08777 10.2613L1.25719 8.9266C1.23192 8.88998 1.21706 8.84719 1.21422 8.80279C1.21137 8.75839 1.22064 8.71405 1.24103 8.67451L1.24749 8.68098Z" fill="#4B2679"/>
</svg>
