<svg width="16" height="17" viewBox="0 0 16 17" fill="none" xmlns="http://www.w3.org/2000/svg">
<path d="M12.5343 2.68823C12.5343 2.51564 12.3944 2.37573 12.2218 2.37573H8.46875V7.38151H12.5343V2.68823Z" fill="#4B2679"/>
<path d="M7.53086 2.37573H3.77783C3.60524 2.37573 3.46533 2.51564 3.46533 2.68823V5.2912L4.96936 3.78673C5.15239 3.60364 5.44921 3.60361 5.63227 3.78664C5.81536 3.96967 5.81539 4.26648 5.63236 4.44954L3.46533 6.6172V7.38151H7.53086V2.37573ZM6.58336 6.05873L6.18252 6.45973C6.09099 6.55129 5.97099 6.59708 5.85102 6.59708C5.73108 6.59708 5.61114 6.55133 5.51961 6.45983C5.33652 6.27683 5.33646 5.98001 5.51949 5.79692L5.92033 5.39592C6.1033 5.21283 6.40014 5.21276 6.58324 5.39579C6.76633 5.57886 6.76639 5.87567 6.58336 6.05873Z" fill="#4B2679"/>
<path d="M7.53086 8.32031H3.46533V11.9199H7.53086V8.32031Z" fill="#4B2679"/>
<path d="M12.5343 8.32031H8.46875V11.9199H12.5343V8.32031Z" fill="#4B2679"/>
<path d="M2.52786 2.37703C2.52786 1.85925 2.94761 1.43953 3.46536 1.43953H12.5339C13.0517 1.43953 13.4714 1.85925 13.4714 2.37703V11.9199H14.8789V0.625C14.8789 0.279813 14.5991 0 14.2539 0H1.74536C1.40017 0 1.12036 0.279813 1.12036 0.625V11.9198H2.52786V2.37703Z" fill="#4B2679"/>
<path d="M15.5312 12.8586H0.46875C0.209875 12.8586 0 13.0685 0 13.3274V13.345C0 14.8097 1.19159 16.0013 2.65625 16.0013H13.3438C14.8084 16.0013 16 14.8097 16 13.345V13.3274C16 13.0685 15.7901 12.8586 15.5312 12.8586Z" fill="#4B2679"/>
</svg>
