<svg width="223" height="25" viewBox="0 0 223 25" fill="none" xmlns="http://www.w3.org/2000/svg">
<path d="M103.146 5.45913V7.51395C102.624 7.76952 102.057 7.89731 101.443 7.89731C100.36 7.89731 99.4602 7.54973 98.7446 6.85457C98.0392 6.16963 97.6865 5.31601 97.6865 4.29371C97.6865 3.24074 98.0546 2.35645 98.7906 1.64084C99.5164 0.94568 100.437 0.598098 101.551 0.598098C102.103 0.598098 102.634 0.725885 103.146 0.98146V3.03628C102.726 2.73981 102.302 2.59158 101.873 2.59158C101.392 2.59158 100.994 2.75004 100.677 3.06695C100.36 3.38386 100.201 3.77745 100.201 4.2477C100.201 4.69752 100.344 5.08088 100.631 5.39779C100.958 5.74537 101.377 5.91916 101.888 5.91916C102.369 5.91916 102.788 5.76582 103.146 5.45913Z" fill="#31364B"/>
<path d="M111.805 4.43172V4.6924H106.699C106.699 5.17288 106.842 5.55625 107.128 5.84249C107.353 6.06739 107.69 6.17985 108.14 6.17985C108.447 6.17985 108.713 6.11851 108.938 5.99583C109.132 5.88338 109.275 5.73004 109.367 5.5358H111.713C111.56 6.08784 111.284 6.5581 110.885 6.94657C110.231 7.5804 109.301 7.89731 108.094 7.89731C106.898 7.89731 105.952 7.54973 105.257 6.85457C104.583 6.17985 104.245 5.31601 104.245 4.26304C104.245 3.15896 104.588 2.27467 105.273 1.61017C105.958 0.94568 106.893 0.613433 108.079 0.613433C109.173 0.613433 110.052 0.925234 110.716 1.54884C111.442 2.244 111.805 3.20496 111.805 4.43172ZM106.775 3.28163H109.551C109.479 2.98517 109.347 2.73981 109.152 2.54558C108.907 2.30023 108.57 2.17755 108.14 2.17755C107.721 2.17755 107.389 2.30023 107.143 2.54558C106.939 2.77048 106.816 3.01583 106.775 3.28163Z" fill="#31364B"/>
<path d="M115.676 7.00791V11.1789H113.222V0.812781H115.676V1.56417C116.197 0.909899 116.897 0.582764 117.776 0.582764C118.737 0.582764 119.55 0.915011 120.215 1.57951C120.91 2.27467 121.257 3.15896 121.257 4.23237C121.257 5.32623 120.889 6.23096 120.153 6.94657C119.509 7.5804 118.727 7.89731 117.807 7.89731C116.959 7.89731 116.248 7.60084 115.676 7.00791ZM117.178 2.66825C116.749 2.66825 116.381 2.8216 116.074 3.12829C115.757 3.4452 115.599 3.82345 115.599 4.26304C115.599 4.67196 115.757 5.03487 116.074 5.35179C116.381 5.65848 116.749 5.81182 117.178 5.81182C117.618 5.81182 117.981 5.65848 118.267 5.35179C118.584 5.03487 118.743 4.67196 118.743 4.26304C118.743 3.82345 118.584 3.4452 118.267 3.12829C117.981 2.8216 117.618 2.66825 117.178 2.66825Z" fill="#31364B"/>
<path d="M122.671 0.812781H126.873C127.691 0.812781 128.274 0.976348 128.621 1.30348C128.938 1.59995 129.097 1.99865 129.097 2.49957C129.097 2.89827 128.999 3.24074 128.805 3.52698C128.642 3.76211 128.391 3.95124 128.054 4.09436V4.12503C128.453 4.20681 128.78 4.36527 129.035 4.6004C129.362 4.89686 129.526 5.29045 129.526 5.78115C129.526 6.33319 129.362 6.77278 129.035 7.09992C128.657 7.47817 128.1 7.66729 127.364 7.66729H122.671V0.812781ZM125.125 3.54232H126.045C126.341 3.54232 126.551 3.4912 126.674 3.38897C126.796 3.27652 126.858 3.11295 126.858 2.89827C126.858 2.70403 126.802 2.56091 126.689 2.4689C126.566 2.35645 126.347 2.30023 126.03 2.30023H125.125V3.54232ZM125.125 6.17985H126.214C126.469 6.17985 126.669 6.1134 126.812 5.9805C126.945 5.8476 127.011 5.68403 127.011 5.4898C127.011 5.27511 126.95 5.10643 126.827 4.98376C126.715 4.87131 126.51 4.81508 126.214 4.81508H125.125V6.17985Z" fill="#31364B"/>
<path d="M130.788 0.812781H133.241V4.33971L135.956 0.812781H138.087V7.66729H135.634V4.04836L132.95 7.66729H130.788V0.812781Z" fill="#31364B"/>
<path d="M144.956 5.45913V7.51395C144.435 7.76952 143.867 7.89731 143.254 7.89731C142.17 7.89731 141.271 7.54973 140.555 6.85457C139.85 6.16963 139.497 5.31601 139.497 4.29371C139.497 3.24074 139.865 2.35645 140.601 1.64084C141.327 0.94568 142.247 0.598098 143.361 0.598098C143.913 0.598098 144.445 0.725885 144.956 0.98146V3.03628C144.537 2.73981 144.113 2.59158 143.683 2.59158C143.203 2.59158 142.804 2.75004 142.487 3.06695C142.17 3.38386 142.012 3.77745 142.012 4.2477C142.012 4.69752 142.155 5.08088 142.441 5.39779C142.768 5.74537 143.187 5.91916 143.699 5.91916C144.179 5.91916 144.598 5.76582 144.956 5.45913Z" fill="#31364B"/>
<path d="M150.693 0.812781H156.995V5.94983H157.992V9.66078H155.845V7.66729H151.291V9.66078H149.144V5.94983C149.522 5.91916 149.834 5.78115 150.079 5.5358C150.488 5.1371 150.693 4.48283 150.693 3.57299V0.812781ZM154.603 5.94983V2.53024H152.962V3.69566C152.962 4.20681 152.896 4.64129 152.763 4.99909C152.61 5.40801 152.395 5.72493 152.119 5.94983H154.603Z" fill="#31364B"/>
<path d="M166.596 0.812781V7.66729H164.143V2.8216H162.394V4.78441C162.394 5.82716 162.154 6.59899 161.674 7.09992C161.244 7.53951 160.6 7.7593 159.742 7.7593C159.425 7.7593 159.098 7.72863 158.76 7.66729V5.88849C159.19 5.93961 159.512 5.85271 159.726 5.62781C159.931 5.41312 160.033 5.0451 160.033 4.52372V0.812781H166.596Z" fill="#31364B"/>
<path d="M167.871 7.66729L169.773 5.27511C169.303 5.18311 168.904 4.98376 168.577 4.67707C168.219 4.31926 168.04 3.82856 168.04 3.20496C168.04 2.52002 168.245 1.96287 168.654 1.5335C169.103 1.05302 169.88 0.812781 170.984 0.812781H174.603V7.66729H172.15V5.4898H171.95L170.448 7.66729H167.871ZM172.15 3.98702V2.40757H171.414C171.056 2.40757 170.8 2.47913 170.647 2.62225C170.504 2.76537 170.432 2.95961 170.432 3.20496C170.432 3.46053 170.509 3.65477 170.662 3.78767C170.826 3.92057 171.066 3.98702 171.383 3.98702H172.15Z" fill="#31364B"/>
<path d="M101.811 18.0027C101.392 18.0027 101.024 18.151 100.707 18.4474C100.391 18.7439 100.232 19.117 100.232 19.5668C100.232 19.9758 100.391 20.3387 100.707 20.6556C101.014 20.9623 101.382 21.1156 101.811 21.1156C102.231 21.1156 102.594 20.9623 102.9 20.6556C103.217 20.3591 103.376 19.9962 103.376 19.5668C103.376 19.1375 103.217 18.7643 102.9 18.4474C102.583 18.151 102.22 18.0027 101.811 18.0027ZM104.863 17.052C105.568 17.7369 105.921 18.5752 105.921 19.5668C105.921 20.5585 105.568 21.4019 104.863 22.097C104.096 22.8535 103.074 23.2318 101.796 23.2318C100.529 23.2318 99.5113 22.8535 98.7446 22.097C98.0392 21.4019 97.6865 20.5585 97.6865 19.5668C97.6865 18.5752 98.0392 17.7369 98.7446 17.052C99.5215 16.2955 100.539 15.9172 101.796 15.9172C103.043 15.9172 104.066 16.2955 104.863 17.052Z" fill="#31364B"/>
<path d="M107.337 23.0018V16.1473H109.79V21.0696H111.891V16.1473H114.345V21.0696H115.48V24.9953H113.333V23.0018H107.337Z" fill="#31364B"/>
<path d="M123.74 19.7662V20.0269H118.634C118.634 20.5074 118.777 20.8907 119.063 21.177C119.288 21.4019 119.626 21.5143 120.075 21.5143C120.382 21.5143 120.648 21.453 120.873 21.3303C121.067 21.2179 121.21 21.0645 121.302 20.8703H123.648C123.495 21.4223 123.219 21.8926 122.82 22.2811C122.166 22.9149 121.236 23.2318 120.029 23.2318C118.833 23.2318 117.888 22.8842 117.192 22.189C116.518 21.5143 116.18 20.6505 116.18 19.5975C116.18 18.4934 116.523 17.6091 117.208 16.9447C117.893 16.2802 118.828 15.9479 120.014 15.9479C121.108 15.9479 121.987 16.2597 122.652 16.8833C123.377 17.5785 123.74 18.5394 123.74 19.7662ZM118.711 18.6161H121.486C121.415 18.3196 121.282 18.0743 121.087 17.8801C120.842 17.6347 120.505 17.512 120.075 17.512C119.656 17.512 119.324 17.6347 119.079 17.8801C118.874 18.105 118.751 18.3503 118.711 18.6161Z" fill="#31364B"/>
<path d="M125.157 23.0018V16.1473H127.611V18.4628H129.896V16.1473H132.349V23.0018H129.896V20.3949H127.611V23.0018H125.157Z" fill="#31364B"/>
<path d="M134.038 23.0018V16.1473H136.491V18.9535L138.561 16.1473H141.643L138.807 19.3675L141.904 23.0018H138.73L136.491 19.9655V23.0018H134.038Z" fill="#31364B"/>
<path d="M142.768 16.1473H145.221V19.6742L147.936 16.1473H150.067V23.0018H147.614V19.3828L144.93 23.0018H142.768V16.1473Z" fill="#31364B"/>
<path d="M159.181 18.0027C158.762 18.0027 158.394 18.151 158.077 18.4474C157.76 18.7439 157.602 19.117 157.602 19.5668C157.602 19.9758 157.76 20.3387 158.077 20.6556C158.384 20.9623 158.752 21.1156 159.181 21.1156C159.6 21.1156 159.963 20.9623 160.27 20.6556C160.587 20.3591 160.745 19.9962 160.745 19.5668C160.745 19.1375 160.587 18.7643 160.27 18.4474C159.953 18.151 159.59 18.0027 159.181 18.0027ZM162.233 17.052C162.938 17.7369 163.291 18.5752 163.291 19.5668C163.291 20.5585 162.938 21.4019 162.233 22.097C161.466 22.8535 160.444 23.2318 159.166 23.2318C157.898 23.2318 156.881 22.8535 156.114 22.097C155.409 21.4019 155.056 20.5585 155.056 19.5668C155.056 18.5752 155.409 17.7369 156.114 17.052C156.891 16.2955 157.908 15.9172 159.166 15.9172C160.413 15.9172 161.435 16.2955 162.233 17.052Z" fill="#31364B"/>
<path d="M166.577 16.8833H166.685C167.216 16.2597 167.988 15.9479 169 15.9479C170.114 15.9479 171.019 16.2699 171.714 16.914C172.358 17.5171 172.68 18.3452 172.68 19.3982C172.68 20.5023 172.328 21.407 171.622 22.1124C170.876 22.8587 169.854 23.2318 168.555 23.2318C167.288 23.2318 166.301 22.8689 165.596 22.143C164.819 21.3456 164.43 20.1444 164.43 18.5394C164.43 16.4846 164.921 14.9461 165.903 13.9238C166.24 13.5864 166.618 13.3206 167.037 13.1264C167.467 12.9321 168.019 12.7686 168.693 12.6357L169.138 12.5437C169.68 12.4414 170.028 12.3136 170.181 12.1603C170.314 12.0069 170.38 11.8383 170.38 11.6543H172.512C172.44 12.1859 172.231 12.6817 171.883 13.1417C171.556 13.5711 171.086 13.8982 170.472 14.1231C170.247 14.2049 169.654 14.3787 168.693 14.6445C167.988 14.8387 167.487 15.0892 167.191 15.3959C166.833 15.7843 166.628 16.2802 166.577 16.8833ZM168.555 17.9721C168.146 17.9721 167.794 18.105 167.497 18.3708C167.15 18.6774 166.976 19.0659 166.976 19.5362C166.976 20.0064 167.15 20.4 167.497 20.7169C167.794 20.9827 168.146 21.1156 168.555 21.1156C168.975 21.1156 169.327 20.9827 169.613 20.7169C169.961 20.3898 170.135 19.9758 170.135 19.4748C170.135 19.0455 169.961 18.6774 169.613 18.3708C169.307 18.105 168.954 17.9721 168.555 17.9721Z" fill="#31364B"/>
<path d="M177.623 18.4321H179.34C180.158 18.4321 180.777 18.6366 181.196 19.0455C181.605 19.4442 181.809 19.9911 181.809 20.6863C181.809 21.3814 181.615 21.9284 181.226 22.3271C180.777 22.7769 180.148 23.0018 179.34 23.0018H175.169V18.1561H173.406V16.1473H177.623V18.4321ZM177.623 21.407H178.543C178.839 21.407 179.059 21.3354 179.202 21.1923C179.304 21.0901 179.356 20.9265 179.356 20.7016C179.356 20.4767 179.299 20.3131 179.187 20.2109C179.044 20.0882 178.819 20.0269 178.512 20.0269H177.623V21.407Z" fill="#31364B"/>
<path d="M190.304 19.7662V20.0269H185.198C185.198 20.5074 185.341 20.8907 185.627 21.177C185.852 21.4019 186.19 21.5143 186.64 21.5143C186.946 21.5143 187.212 21.453 187.437 21.3303C187.631 21.2179 187.774 21.0645 187.866 20.8703H190.212C190.059 21.4223 189.783 21.8926 189.384 22.2811C188.73 22.9149 187.8 23.2318 186.594 23.2318C185.397 23.2318 184.452 22.8842 183.757 22.189C183.082 21.5143 182.745 20.6505 182.745 19.5975C182.745 18.4934 183.087 17.6091 183.772 16.9447C184.457 16.2802 185.392 15.9479 186.578 15.9479C187.672 15.9479 188.551 16.2597 189.216 16.8833C189.942 17.5785 190.304 18.5394 190.304 19.7662ZM185.275 18.6161H188.05C187.979 18.3196 187.846 18.0743 187.652 17.8801C187.406 17.6347 187.069 17.512 186.64 17.512C186.22 17.512 185.888 17.6347 185.643 17.8801C185.438 18.105 185.316 18.3503 185.275 18.6161Z" fill="#31364B"/>
<path d="M191.721 23.0018V16.1473H194.175V18.9535L196.245 16.1473H199.327L196.491 19.3675L199.588 23.0018H196.414L194.175 19.9655V23.0018H191.721Z" fill="#31364B"/>
<path d="M201.541 23.0018V18.1561H199.762V16.1473H205.773V18.1561H203.994V23.0018H201.541Z" fill="#31364B"/>
<path d="M210.62 18.0027C210.201 18.0027 209.833 18.151 209.516 18.4474C209.199 18.7439 209.041 19.117 209.041 19.5668C209.041 19.9758 209.199 20.3387 209.516 20.6556C209.823 20.9623 210.191 21.1156 210.62 21.1156C211.04 21.1156 211.402 20.9623 211.709 20.6556C212.026 20.3591 212.185 19.9962 212.185 19.5668C212.185 19.1375 212.026 18.7643 211.709 18.4474C211.392 18.151 211.029 18.0027 210.62 18.0027ZM213.672 17.052C214.377 17.7369 214.73 18.5752 214.73 19.5668C214.73 20.5585 214.377 21.4019 213.672 22.097C212.905 22.8535 211.883 23.2318 210.605 23.2318C209.337 23.2318 208.32 22.8535 207.554 22.097C206.848 21.4019 206.495 20.5585 206.495 19.5668C206.495 18.5752 206.848 17.7369 207.554 17.052C208.33 16.2955 209.348 15.9172 210.605 15.9172C211.852 15.9172 212.875 16.2955 213.672 17.052Z" fill="#31364B"/>
<path d="M216.146 16.1473H220.347C221.165 16.1473 221.748 16.3108 222.096 16.638C222.413 16.9344 222.571 17.3331 222.571 17.8341C222.571 18.2327 222.474 18.5752 222.28 18.8615C222.116 19.0966 221.866 19.2857 221.528 19.4288V19.4595C221.927 19.5413 222.254 19.6997 222.51 19.9349C222.837 20.2313 223 20.6249 223 21.1156C223 21.6677 222.837 22.1073 222.51 22.4344C222.131 22.8126 221.574 23.0018 220.838 23.0018H216.146V16.1473ZM218.599 18.8768H219.519C219.816 18.8768 220.025 18.8257 220.148 18.7235C220.271 18.611 220.332 18.4474 220.332 18.2327C220.332 18.0385 220.276 17.8954 220.163 17.8034C220.041 17.6909 219.821 17.6347 219.504 17.6347H218.599V18.8768ZM218.599 21.5143H219.688C219.944 21.5143 220.143 21.4479 220.286 21.315C220.419 21.1821 220.486 21.0185 220.486 20.8243C220.486 20.6096 220.424 20.4409 220.301 20.3182C220.189 20.2058 219.985 20.1496 219.688 20.1496H218.599V21.5143Z" fill="#31364B"/>
<path d="M13.7688 0V5.06934H6.10768V23.0017H0V0H13.7688Z" fill="#31364B"/>
<path d="M30.7913 0V5.06934H23.5186V8.89722H30.4029V13.9666H23.5186V17.9324H30.7913V23.0017H17.4109V0H30.7913Z" fill="#31364B"/>
<path d="M40.7915 0V8.58685H49.6177V0H55.7606V23.0017H49.6177V13.6907H40.7915V23.0017H34.6839V0H40.7915Z" fill="#31364B"/>
<path d="M76.5304 23.0017L75.0829 19.1394H66.5393L64.9505 23.0017H58.4898L67.5278 0H74.2003L83.0618 23.0017H76.5304ZM68.2339 14.5873H73.4589L70.8111 7.13846L68.2339 14.5873Z" fill="#31364B"/>
</svg>
