<svg width="157" height="19" viewBox="0 0 157 19" fill="none" xmlns="http://www.w3.org/2000/svg">
<path d="M73.1016 4.57336V6.01173C72.7367 6.19063 72.3395 6.28008 71.9101 6.28008C71.1516 6.28008 70.5219 6.03678 70.0209 5.55016C69.5272 5.07071 69.2803 4.47318 69.2803 3.75757C69.2803 3.02049 69.5379 2.40149 70.0531 1.90057C70.5612 1.41395 71.2053 1.17065 71.9853 1.17065C72.3717 1.17065 72.7438 1.2601 73.1016 1.439V2.87737C72.8082 2.66984 72.5112 2.56608 72.2107 2.56608C71.8744 2.56608 71.5953 2.677 71.3734 2.89884C71.1516 3.12068 71.0407 3.39619 71.0407 3.72537C71.0407 4.04023 71.1409 4.30859 71.3412 4.53042C71.5702 4.77373 71.8636 4.89538 72.2214 4.89538C72.5578 4.89538 72.8512 4.78804 73.1016 4.57336Z" fill="url(#paint0_linear)"/>
<path d="M79.1633 3.85417V4.03665H75.5888C75.5888 4.37299 75.689 4.64134 75.8894 4.84171C76.0468 4.99915 76.283 5.07786 76.5978 5.07786C76.8125 5.07786 76.9986 5.03493 77.156 4.94905C77.292 4.87034 77.3922 4.763 77.4566 4.62703H79.0989C78.9915 5.01346 78.7983 5.34264 78.5192 5.61457C78.0613 6.05825 77.4101 6.28008 76.5656 6.28008C75.7284 6.28008 75.0664 6.03678 74.5798 5.55016C74.1075 5.07786 73.8714 4.47318 73.8714 3.7361C73.8714 2.96324 74.1111 2.34424 74.5906 1.8791C75.07 1.41395 75.7248 1.18138 76.5549 1.18138C77.3206 1.18138 77.936 1.39964 78.4012 1.83616C78.9092 2.32277 79.1633 2.99545 79.1633 3.85417ZM75.6425 3.04912H77.5854C77.5353 2.84159 77.4423 2.66984 77.3063 2.53388C77.1345 2.36213 76.8984 2.27626 76.5978 2.27626C76.3044 2.27626 76.0719 2.36213 75.9001 2.53388C75.757 2.69131 75.6711 2.86306 75.6425 3.04912Z" fill="url(#paint1_linear)"/>
<path d="M81.8726 5.65751V8.57718H80.1552V1.32092H81.8726V1.8469C82.2376 1.38891 82.7278 1.15991 83.3432 1.15991C84.0159 1.15991 84.5848 1.39248 85.0499 1.85763C85.5366 2.34424 85.7799 2.96324 85.7799 3.71463C85.7799 4.48033 85.5222 5.11364 85.007 5.61457C84.5562 6.05825 84.0087 6.28008 83.3647 6.28008C82.7707 6.28008 82.2734 6.07256 81.8726 5.65751ZM82.9246 2.61975C82.624 2.61975 82.3664 2.72709 82.1517 2.94177C81.9299 3.16361 81.819 3.42839 81.819 3.7361C81.819 4.02234 81.9299 4.27638 82.1517 4.49822C82.3664 4.7129 82.624 4.82025 82.9246 4.82025C83.2323 4.82025 83.4863 4.7129 83.6867 4.49822C83.9085 4.27638 84.0195 4.02234 84.0195 3.7361C84.0195 3.42839 83.9085 3.16361 83.6867 2.94177C83.4863 2.72709 83.2323 2.61975 82.9246 2.61975Z" fill="url(#paint2_linear)"/>
<path d="M86.7697 1.32092H89.7108C90.2833 1.32092 90.6912 1.43542 90.9345 1.66442C91.1563 1.87194 91.2673 2.15103 91.2673 2.50168C91.2673 2.78076 91.1993 3.02049 91.0633 3.22086C90.9488 3.38545 90.7735 3.51784 90.5373 3.61802V3.63949C90.8164 3.69674 91.0454 3.80766 91.2243 3.97225C91.4533 4.17978 91.5678 4.45529 91.5678 4.79878C91.5678 5.1852 91.4533 5.49292 91.2243 5.72191C90.9595 5.98668 90.5695 6.11907 90.0543 6.11907H86.7697V1.32092ZM88.4871 3.2316H89.1312C89.3387 3.2316 89.4854 3.19582 89.5713 3.12425C89.6571 3.04554 89.7001 2.93104 89.7001 2.78076C89.7001 2.6448 89.6607 2.54461 89.582 2.48021C89.4961 2.40149 89.3423 2.36213 89.1204 2.36213H88.4871V3.2316ZM88.4871 5.07786H89.2492C89.4281 5.07786 89.5677 5.03135 89.6679 4.93832C89.7609 4.84529 89.8074 4.73079 89.8074 4.59483C89.8074 4.44455 89.7645 4.32648 89.6786 4.2406C89.5999 4.16189 89.4568 4.12253 89.2492 4.12253H88.4871V5.07786Z" fill="url(#paint3_linear)"/>
<path d="M92.4512 1.32092H94.1687V3.78977L96.0686 1.32092H97.5606V6.11907H95.8432V3.58582L93.9647 6.11907H92.4512V1.32092Z" fill="url(#paint4_linear)"/>
<path d="M102.369 4.57336V6.01173C102.004 6.19063 101.607 6.28008 101.177 6.28008C100.419 6.28008 99.7891 6.03678 99.2882 5.55016C98.7944 5.07071 98.5475 4.47318 98.5475 3.75757C98.5475 3.02049 98.8051 2.40149 99.3204 1.90057C99.8284 1.41395 100.472 1.17065 101.252 1.17065C101.639 1.17065 102.011 1.2601 102.369 1.439V2.87737C102.075 2.66984 101.778 2.56608 101.478 2.56608C101.142 2.56608 100.862 2.677 100.641 2.89884C100.419 3.12068 100.308 3.39619 100.308 3.72537C100.308 4.04023 100.408 4.30859 100.608 4.53042C100.837 4.77373 101.131 4.89538 101.489 4.89538C101.825 4.89538 102.118 4.78804 102.369 4.57336Z" fill="url(#paint5_linear)"/>
<path d="M106.385 1.32092H110.796V4.91685H111.494V7.51451H109.991V6.11907H106.803V7.51451H105.3V4.91685C105.565 4.89538 105.783 4.79878 105.955 4.62703C106.241 4.34794 106.385 3.88995 106.385 3.25306V1.32092ZM109.122 4.91685V2.52314H107.973V3.33894C107.973 3.69674 107.927 4.00087 107.834 4.25134C107.726 4.53758 107.576 4.75942 107.383 4.91685H109.122Z" fill="url(#paint6_linear)"/>
<path d="M117.517 1.32092V6.11907H115.799V2.72709H114.576V4.10106C114.576 4.83098 114.408 5.37126 114.071 5.72191C113.771 6.02962 113.32 6.18348 112.719 6.18348C112.497 6.18348 112.268 6.16201 112.032 6.11907V4.87392C112.332 4.9097 112.558 4.84887 112.708 4.69144C112.851 4.54116 112.923 4.28354 112.923 3.91858V1.32092H117.517Z" fill="url(#paint7_linear)"/>
<path d="M118.41 6.11907L119.741 4.44455C119.411 4.38015 119.132 4.2406 118.903 4.02592C118.653 3.77546 118.528 3.43197 118.528 2.99545C118.528 2.51599 118.671 2.12598 118.957 1.82543C119.272 1.48909 119.816 1.32092 120.589 1.32092H123.122V6.11907H121.404V4.59483H121.265L120.213 6.11907H118.41ZM121.404 3.54289V2.43727H120.889C120.639 2.43727 120.46 2.48736 120.353 2.58755C120.252 2.68773 120.202 2.8237 120.202 2.99545C120.202 3.17435 120.256 3.31031 120.363 3.40334C120.478 3.49637 120.646 3.54289 120.868 3.54289H121.404Z" fill="url(#paint8_linear)"/>
<path d="M72.1678 13.3539C71.8744 13.3539 71.6167 13.4576 71.3949 13.6652C71.1731 13.8727 71.0621 14.1339 71.0621 14.4487C71.0621 14.735 71.1731 14.989 71.3949 15.2109C71.6096 15.4255 71.8672 15.5329 72.1678 15.5329C72.4611 15.5329 72.7152 15.4255 72.9299 15.2109C73.1517 15.0033 73.2626 14.7493 73.2626 14.4487C73.2626 14.1482 73.1517 13.887 72.9299 13.6652C72.708 13.4576 72.454 13.3539 72.1678 13.3539ZM74.3038 12.6883C74.7976 13.1678 75.0445 13.7546 75.0445 14.4487C75.0445 15.1429 74.7976 15.7333 74.3038 16.2199C73.7671 16.7494 73.0515 17.0142 72.157 17.0142C71.2697 17.0142 70.5576 16.7494 70.0209 16.2199C69.5272 15.7333 69.2803 15.1429 69.2803 14.4487C69.2803 13.7546 69.5272 13.1678 70.0209 12.6883C70.5648 12.1588 71.2768 11.894 72.157 11.894C73.0301 11.894 73.7457 12.1588 74.3038 12.6883Z" fill="url(#paint9_linear)"/>
<path d="M76.0356 16.8532V12.055H77.753V15.5007H79.2236V12.055H80.941V15.5007H81.7354V18.2486H80.2326V16.8532H76.0356Z" fill="url(#paint10_linear)"/>
<path d="M87.5179 14.5883V14.7708H83.9434C83.9434 15.1071 84.0436 15.3755 84.244 15.5758C84.4014 15.7333 84.6375 15.812 84.9524 15.812C85.1671 15.812 85.3532 15.769 85.5106 15.6832C85.6466 15.6045 85.7467 15.4971 85.8111 15.3611H87.4535C87.3461 15.7476 87.1529 16.0768 86.8738 16.3487C86.4158 16.7924 85.7646 17.0142 84.9202 17.0142C84.083 17.0142 83.421 16.7709 82.9344 16.2843C82.4621 15.812 82.2259 15.2073 82.2259 14.4702C82.2259 13.6974 82.4657 13.0784 82.9451 12.6132C83.4246 12.1481 84.0794 11.9155 84.9095 11.9155C85.6752 11.9155 86.2906 12.1338 86.7557 12.5703C87.2638 13.0569 87.5179 13.7296 87.5179 14.5883ZM83.9971 13.7832H85.94C85.8899 13.5757 85.7968 13.404 85.6609 13.268C85.4891 13.0962 85.253 13.0104 84.9524 13.0104C84.659 13.0104 84.4264 13.0962 84.2547 13.268C84.1116 13.4254 84.0257 13.5972 83.9971 13.7832Z" fill="url(#paint11_linear)"/>
<path d="M88.5098 16.8532V12.055H90.2272V13.6759H91.8266V12.055H93.5441V16.8532H91.8266V15.0284H90.2272V16.8532H88.5098Z" fill="url(#paint12_linear)"/>
<path d="M94.7259 16.8532V12.055H96.4434V14.0194L97.8925 12.055H100.05L98.0642 14.3092L100.233 16.8532H98.0105L96.4434 14.7278V16.8532H94.7259Z" fill="url(#paint13_linear)"/>
<path d="M100.837 12.055H102.555V14.5239L104.455 12.055H105.947V16.8532H104.229V14.3199L102.351 16.8532H100.837V12.055Z" fill="url(#paint14_linear)"/>
<path d="M112.326 13.3539C112.033 13.3539 111.775 13.4576 111.553 13.6652C111.332 13.8727 111.221 14.1339 111.221 14.4487C111.221 14.735 111.332 14.989 111.553 15.2109C111.768 15.4255 112.026 15.5329 112.326 15.5329C112.62 15.5329 112.874 15.4255 113.088 15.2109C113.31 15.0033 113.421 14.7493 113.421 14.4487C113.421 14.1482 113.31 13.887 113.088 13.6652C112.867 13.4576 112.613 13.3539 112.326 13.3539ZM114.462 12.6883C114.956 13.1678 115.203 13.7546 115.203 14.4487C115.203 15.1429 114.956 15.7333 114.462 16.2199C113.926 16.7494 113.21 17.0142 112.316 17.0142C111.428 17.0142 110.716 16.7494 110.18 16.2199C109.686 15.7333 109.439 15.1429 109.439 14.4487C109.439 13.7546 109.686 13.1678 110.18 12.6883C110.723 12.1588 111.435 11.894 112.316 11.894C113.189 11.894 113.904 12.1588 114.462 12.6883Z" fill="url(#paint15_linear)"/>
<path d="M117.504 12.5703H117.579C117.951 12.1338 118.491 11.9155 119.2 11.9155C119.98 11.9155 120.613 12.1409 121.1 12.5917C121.55 13.014 121.776 13.5936 121.776 14.3307C121.776 15.1035 121.529 15.7368 121.035 16.2306C120.513 16.753 119.797 17.0142 118.888 17.0142C118.001 17.0142 117.31 16.7602 116.817 16.2521C116.273 15.6939 116.001 14.8531 116.001 13.7296C116.001 12.2912 116.344 11.2142 117.031 10.4986C117.268 10.2624 117.532 10.0764 117.826 9.94042C118.126 9.80445 118.513 9.68995 118.985 9.59692L119.296 9.53252C119.676 9.46096 119.919 9.37151 120.026 9.26417C120.119 9.15683 120.166 9.03875 120.166 8.90994H121.658C121.608 9.28206 121.461 9.62913 121.218 9.95115C120.989 10.2517 120.66 10.4807 120.23 10.6381C120.073 10.6954 119.658 10.817 118.985 11.0031C118.491 11.1391 118.141 11.3144 117.933 11.5291C117.683 11.801 117.539 12.1481 117.504 12.5703ZM118.888 13.3324C118.602 13.3324 118.355 13.4254 118.148 13.6115C117.904 13.8262 117.783 14.0981 117.783 14.4273C117.783 14.7565 117.904 15.032 118.148 15.2538C118.355 15.4399 118.602 15.5329 118.888 15.5329C119.182 15.5329 119.429 15.4399 119.629 15.2538C119.872 15.0248 119.994 14.735 119.994 14.3843C119.994 14.0838 119.872 13.8262 119.629 13.6115C119.414 13.4254 119.167 13.3324 118.888 13.3324Z" fill="url(#paint16_linear)"/>
<path d="M125.236 13.6544H126.438C127.01 13.6544 127.443 13.7975 127.737 14.0838C128.023 14.3629 128.166 14.7457 128.166 15.2323C128.166 15.7189 128.03 16.1018 127.758 16.3809C127.443 16.6958 127.003 16.8532 126.438 16.8532H123.518V13.4612H122.284V12.055H125.236V13.6544ZM125.236 15.7368H125.88C126.087 15.7368 126.241 15.6867 126.341 15.5866C126.413 15.515 126.448 15.4005 126.448 15.2431C126.448 15.0856 126.409 14.9711 126.33 14.8996C126.23 14.8137 126.073 14.7708 125.858 14.7708H125.236V15.7368Z" fill="url(#paint17_linear)"/>
<path d="M134.113 14.5883V14.7708H130.538C130.538 15.1071 130.638 15.3755 130.839 15.5758C130.996 15.7333 131.232 15.812 131.547 15.812C131.762 15.812 131.948 15.769 132.105 15.6832C132.241 15.6045 132.342 15.4971 132.406 15.3611H134.048C133.941 15.7476 133.748 16.0768 133.469 16.3487C133.011 16.7924 132.359 17.0142 131.515 17.0142C130.678 17.0142 130.016 16.7709 129.529 16.2843C129.057 15.812 128.821 15.2073 128.821 14.4702C128.821 13.6974 129.061 13.0784 129.54 12.6132C130.019 12.1481 130.674 11.9155 131.504 11.9155C132.27 11.9155 132.885 12.1338 133.351 12.5703C133.859 13.0569 134.113 13.7296 134.113 14.5883ZM130.592 13.7832H132.535C132.485 13.5757 132.392 13.404 132.256 13.268C132.084 13.0962 131.848 13.0104 131.547 13.0104C131.254 13.0104 131.021 13.0962 130.85 13.268C130.706 13.4254 130.621 13.5972 130.592 13.7832Z" fill="url(#paint18_linear)"/>
<path d="M135.105 16.8532V12.055H136.822V14.0194L138.271 12.055H140.429L138.443 14.3092L140.611 16.8532H138.389L136.822 14.7278V16.8532H135.105Z" fill="url(#paint19_linear)"/>
<path d="M141.978 16.8532V13.4612H140.733V12.055H144.941V13.4612H143.696V16.8532H141.978Z" fill="url(#paint20_linear)"/>
<path d="M148.334 13.3539C148.04 13.3539 147.783 13.4576 147.561 13.6652C147.339 13.8727 147.228 14.1339 147.228 14.4487C147.228 14.735 147.339 14.989 147.561 15.2109C147.776 15.4255 148.033 15.5329 148.334 15.5329C148.627 15.5329 148.881 15.4255 149.096 15.2109C149.318 15.0033 149.429 14.7493 149.429 14.4487C149.429 14.1482 149.318 13.887 149.096 13.6652C148.874 13.4576 148.62 13.3539 148.334 13.3539ZM150.47 12.6883C150.964 13.1678 151.211 13.7546 151.211 14.4487C151.211 15.1429 150.964 15.7333 150.47 16.2199C149.933 16.7494 149.218 17.0142 148.323 17.0142C147.436 17.0142 146.724 16.7494 146.187 16.2199C145.693 15.7333 145.446 15.1429 145.446 14.4487C145.446 13.7546 145.693 13.1678 146.187 12.6883C146.731 12.1588 147.443 11.894 148.323 11.894C149.196 11.894 149.912 12.1588 150.47 12.6883Z" fill="url(#paint21_linear)"/>
<path d="M152.202 12.055H155.143C155.715 12.055 156.123 12.1695 156.366 12.3985C156.588 12.6061 156.699 12.8851 156.699 13.2358C156.699 13.5149 156.631 13.7546 156.495 13.955C156.381 14.1196 156.205 14.252 155.969 14.3521V14.3736C156.248 14.4309 156.477 14.5418 156.656 14.7064C156.885 14.9139 157 15.1894 157 15.5329C157 15.9193 156.885 16.227 156.656 16.456C156.392 16.7208 156.002 16.8532 155.486 16.8532H152.202V12.055ZM153.919 13.9657H154.563C154.771 13.9657 154.917 13.9299 155.003 13.8584C155.089 13.7797 155.132 13.6652 155.132 13.5149C155.132 13.3789 155.093 13.2787 155.014 13.2143C154.928 13.1356 154.774 13.0962 154.552 13.0962H153.919V13.9657ZM153.919 15.812H154.681C154.86 15.812 155 15.7655 155.1 15.6724C155.193 15.5794 155.239 15.4649 155.239 15.3289C155.239 15.1787 155.196 15.0606 155.111 14.9747C155.032 14.896 154.889 14.8566 154.681 14.8566H153.919V15.812Z" fill="url(#paint22_linear)"/>
<path d="M10.5385 0.751709V4.30024H5.17576V16.8529H0.900391V0.751709H10.5385Z" fill="url(#paint23_linear)"/>
<path d="M22.4543 0.751709V4.30024H17.3634V6.97975H22.1824V10.5283H17.3634V13.3043H22.4543V16.8529H13.088V0.751709H22.4543Z" fill="url(#paint24_linear)"/>
<path d="M29.4544 0.751709V6.76249H35.6327V0.751709H39.9328V16.8529H35.6327V10.3352H29.4544V16.8529H25.1791V0.751709H29.4544Z" fill="url(#paint25_linear)"/>
<path d="M54.4716 16.8529L53.4583 14.1492H47.4778L46.3657 16.8529H41.8432L48.1698 0.751709H52.8405L59.0435 16.8529H54.4716ZM48.664 10.9628H52.3215L50.4681 5.74862L48.664 10.9628Z" fill="url(#paint26_linear)"/>
<defs>
<linearGradient id="paint0_linear" x1="73.5749" y1="-4.82115" x2="165.221" y2="9.48598" gradientUnits="userSpaceOnUse">
<stop stop-color="#6536A1"/>
<stop offset="1" stop-color="#3F0B81"/>
</linearGradient>
<linearGradient id="paint1_linear" x1="73.5749" y1="-4.82115" x2="165.221" y2="9.48598" gradientUnits="userSpaceOnUse">
<stop stop-color="#6536A1"/>
<stop offset="1" stop-color="#3F0B81"/>
</linearGradient>
<linearGradient id="paint2_linear" x1="73.5749" y1="-4.82115" x2="165.221" y2="9.48598" gradientUnits="userSpaceOnUse">
<stop stop-color="#6536A1"/>
<stop offset="1" stop-color="#3F0B81"/>
</linearGradient>
<linearGradient id="paint3_linear" x1="73.5749" y1="-4.82115" x2="165.221" y2="9.48598" gradientUnits="userSpaceOnUse">
<stop stop-color="#6536A1"/>
<stop offset="1" stop-color="#3F0B81"/>
</linearGradient>
<linearGradient id="paint4_linear" x1="73.5749" y1="-4.82115" x2="165.221" y2="9.48598" gradientUnits="userSpaceOnUse">
<stop stop-color="#6536A1"/>
<stop offset="1" stop-color="#3F0B81"/>
</linearGradient>
<linearGradient id="paint5_linear" x1="73.5749" y1="-4.82115" x2="165.221" y2="9.48598" gradientUnits="userSpaceOnUse">
<stop stop-color="#6536A1"/>
<stop offset="1" stop-color="#3F0B81"/>
</linearGradient>
<linearGradient id="paint6_linear" x1="73.5749" y1="-4.82115" x2="165.221" y2="9.48598" gradientUnits="userSpaceOnUse">
<stop stop-color="#6536A1"/>
<stop offset="1" stop-color="#3F0B81"/>
</linearGradient>
<linearGradient id="paint7_linear" x1="73.5749" y1="-4.82115" x2="165.221" y2="9.48598" gradientUnits="userSpaceOnUse">
<stop stop-color="#6536A1"/>
<stop offset="1" stop-color="#3F0B81"/>
</linearGradient>
<linearGradient id="paint8_linear" x1="73.5749" y1="-4.82115" x2="165.221" y2="9.48598" gradientUnits="userSpaceOnUse">
<stop stop-color="#6536A1"/>
<stop offset="1" stop-color="#3F0B81"/>
</linearGradient>
<linearGradient id="paint9_linear" x1="73.5749" y1="-4.82115" x2="165.221" y2="9.48598" gradientUnits="userSpaceOnUse">
<stop stop-color="#6536A1"/>
<stop offset="1" stop-color="#3F0B81"/>
</linearGradient>
<linearGradient id="paint10_linear" x1="73.5749" y1="-4.82115" x2="165.221" y2="9.48598" gradientUnits="userSpaceOnUse">
<stop stop-color="#6536A1"/>
<stop offset="1" stop-color="#3F0B81"/>
</linearGradient>
<linearGradient id="paint11_linear" x1="73.5749" y1="-4.82115" x2="165.221" y2="9.48598" gradientUnits="userSpaceOnUse">
<stop stop-color="#6536A1"/>
<stop offset="1" stop-color="#3F0B81"/>
</linearGradient>
<linearGradient id="paint12_linear" x1="73.5749" y1="-4.82115" x2="165.221" y2="9.48598" gradientUnits="userSpaceOnUse">
<stop stop-color="#6536A1"/>
<stop offset="1" stop-color="#3F0B81"/>
</linearGradient>
<linearGradient id="paint13_linear" x1="73.5749" y1="-4.82115" x2="165.221" y2="9.48598" gradientUnits="userSpaceOnUse">
<stop stop-color="#6536A1"/>
<stop offset="1" stop-color="#3F0B81"/>
</linearGradient>
<linearGradient id="paint14_linear" x1="73.5749" y1="-4.82115" x2="165.221" y2="9.48598" gradientUnits="userSpaceOnUse">
<stop stop-color="#6536A1"/>
<stop offset="1" stop-color="#3F0B81"/>
</linearGradient>
<linearGradient id="paint15_linear" x1="73.5749" y1="-4.82115" x2="165.221" y2="9.48598" gradientUnits="userSpaceOnUse">
<stop stop-color="#6536A1"/>
<stop offset="1" stop-color="#3F0B81"/>
</linearGradient>
<linearGradient id="paint16_linear" x1="73.5749" y1="-4.82115" x2="165.221" y2="9.48598" gradientUnits="userSpaceOnUse">
<stop stop-color="#6536A1"/>
<stop offset="1" stop-color="#3F0B81"/>
</linearGradient>
<linearGradient id="paint17_linear" x1="73.5749" y1="-4.82115" x2="165.221" y2="9.48598" gradientUnits="userSpaceOnUse">
<stop stop-color="#6536A1"/>
<stop offset="1" stop-color="#3F0B81"/>
</linearGradient>
<linearGradient id="paint18_linear" x1="73.5749" y1="-4.82115" x2="165.221" y2="9.48598" gradientUnits="userSpaceOnUse">
<stop stop-color="#6536A1"/>
<stop offset="1" stop-color="#3F0B81"/>
</linearGradient>
<linearGradient id="paint19_linear" x1="73.5749" y1="-4.82115" x2="165.221" y2="9.48598" gradientUnits="userSpaceOnUse">
<stop stop-color="#6536A1"/>
<stop offset="1" stop-color="#3F0B81"/>
</linearGradient>
<linearGradient id="paint20_linear" x1="73.5749" y1="-4.82115" x2="165.221" y2="9.48598" gradientUnits="userSpaceOnUse">
<stop stop-color="#6536A1"/>
<stop offset="1" stop-color="#3F0B81"/>
</linearGradient>
<linearGradient id="paint21_linear" x1="73.5749" y1="-4.82115" x2="165.221" y2="9.48598" gradientUnits="userSpaceOnUse">
<stop stop-color="#6536A1"/>
<stop offset="1" stop-color="#3F0B81"/>
</linearGradient>
<linearGradient id="paint22_linear" x1="73.5749" y1="-4.82115" x2="165.221" y2="9.48598" gradientUnits="userSpaceOnUse">
<stop stop-color="#6536A1"/>
<stop offset="1" stop-color="#3F0B81"/>
</linearGradient>
<linearGradient id="paint23_linear" x1="3.74698" y1="-4.88371" x2="65.2318" y2="1.8687" gradientUnits="userSpaceOnUse">
<stop stop-color="#6536A1"/>
<stop offset="1" stop-color="#3F0B81"/>
</linearGradient>
<linearGradient id="paint24_linear" x1="3.74698" y1="-4.88371" x2="65.2318" y2="1.8687" gradientUnits="userSpaceOnUse">
<stop stop-color="#6536A1"/>
<stop offset="1" stop-color="#3F0B81"/>
</linearGradient>
<linearGradient id="paint25_linear" x1="3.74698" y1="-4.88371" x2="65.2318" y2="1.8687" gradientUnits="userSpaceOnUse">
<stop stop-color="#6536A1"/>
<stop offset="1" stop-color="#3F0B81"/>
</linearGradient>
<linearGradient id="paint26_linear" x1="3.74698" y1="-4.88371" x2="65.2318" y2="1.8687" gradientUnits="userSpaceOnUse">
<stop stop-color="#6536A1"/>
<stop offset="1" stop-color="#3F0B81"/>
</linearGradient>
</defs>
</svg>
