<svg width="22" height="13" viewBox="0 0 22 13" fill="none" xmlns="http://www.w3.org/2000/svg">
<path d="M0.864309 1.66086L9.74589 5.79688C10.0443 5.93546 10.4304 6.00116 10.8188 6.00116C11.2072 6.00116 11.5933 5.93546 11.8917 5.79688L20.7733 1.66086C21.3523 1.39087 21.8994 0.340698 20.8372 0.340698H0.801546C-0.260691 0.340698 0.286414 1.39087 0.864309 1.66086V1.66086ZM21.0421 3.92237L11.8917 8.05634C11.489 8.23907 11.2072 8.26063 10.8188 8.26063C10.4304 8.26063 10.1485 8.23907 9.74589 8.05634C9.34326 7.87361 1.29891 4.21802 0.641678 3.92135C0.179835 3.71193 0.184572 3.95728 0.184572 4.14616V11.6329C0.184572 12.064 0.854836 12.6594 1.36878 12.6594H20.3162C20.8301 12.6594 21.5004 12.064 21.5004 11.6329V4.14719C21.5004 3.9583 21.5051 3.71296 21.0421 3.92237V3.92237Z" fill="#CEBFE1"/>
</svg>
