<svg width="16" height="16" viewBox="0 0 16 16" fill="none" xmlns="http://www.w3.org/2000/svg">
<path d="M15.5312 14.125H0.46875C0.209656 14.125 0 14.3347 0 14.5938V15.5312C0 15.7903 0.209656 16 0.46875 16H15.5312C15.7903 16 16 15.7903 16 15.5312V14.5938C16 14.3347 15.7903 14.125 15.5312 14.125Z" fill="#4B2679"/>
<path d="M8 0C4.12275 0 0.96875 3.154 0.96875 7.03125V13.1875H2.84375V7.03125C2.84375 4.18809 5.15684 1.875 8 1.875C10.8432 1.875 13.1562 4.18809 13.1562 7.03125V13.1875H15.0312V7.03125C15.0312 3.154 11.8772 0 8 0Z" fill="#4B2679"/>
<path d="M8.46875 2.85938V8.437H12.2188V7.03075C12.2188 4.86491 10.5723 3.09603 8.46875 2.85938Z" fill="#4B2679"/>
<path d="M3.78125 7.03075V8.437H7.53125V2.85938C5.42766 3.09603 3.78125 4.86491 3.78125 7.03075Z" fill="#4B2679"/>
<path d="M12.2188 9.375H8.46875V13.1875H12.2188V9.375Z" fill="#4B2679"/>
<path d="M7.53125 9.375H3.78125V13.1875H7.53125V9.375Z" fill="#4B2679"/>
</svg>
