<svg width="16" height="16" viewBox="0 0 16 16" fill="none" xmlns="http://www.w3.org/2000/svg">
<path d="M4.71217 10.2938C4.71217 10.0281 4.52779 9.86963 4.20248 9.86963C4.06964 9.86963 3.97967 9.88274 3.93262 9.89528V10.7478C3.98833 10.7604 4.05683 10.7645 4.15124 10.7645C4.49799 10.7645 4.71217 10.5894 4.71217 10.2938Z" fill="white"/>
<path d="M6.72618 9.87854C6.5805 9.87854 6.48635 9.89112 6.43066 9.90416V11.7923C6.48638 11.8053 6.57635 11.8053 6.65769 11.8053C7.24868 11.8095 7.63413 11.4842 7.63413 10.7949C7.63831 10.1955 7.28708 9.87854 6.72618 9.87854Z" fill="white"/>
<path d="M10.468 0H4.04177C3.10295 0 2.33886 0.764624 2.33886 1.70291V7.99997H2.17254C1.79362 7.99997 1.48633 8.30696 1.48633 8.68621V12.8478C1.48633 13.227 1.79359 13.534 2.17254 13.534H2.33886V14.2971C2.33886 15.2364 3.10295 16 4.04177 16H12.8101C13.7483 16 14.5125 15.2363 14.5125 14.2971V4.03033L10.468 0ZM3.28654 9.43723C3.48764 9.40324 3.77031 9.37762 4.16857 9.37762C4.57104 9.37762 4.8579 9.45445 5.05064 9.60876C5.23475 9.75418 5.359 9.99421 5.359 10.2767C5.359 10.5591 5.26485 10.7992 5.09355 10.9618C4.87074 11.1716 4.54124 11.2657 4.15579 11.2657C4.07001 11.2657 3.99312 11.2615 3.93299 11.2531V12.2851H3.28654V9.43723ZM12.8101 14.9571H4.04177C3.67826 14.9571 3.38224 14.6611 3.38224 14.2971V13.534H11.5561C11.9351 13.534 12.2424 13.227 12.2424 12.8478V8.68621C12.2424 8.30696 11.9351 7.99997 11.5561 7.99997H3.38224V1.70291C3.38224 1.33993 3.67829 1.04391 4.04177 1.04391L10.0779 1.03761V3.26876C10.0779 3.92045 10.6066 4.44973 11.2588 4.44973L13.4445 4.44346L13.4691 14.297C13.4691 14.6611 13.1736 14.9571 12.8101 14.9571ZM5.77584 12.272V9.43723C6.0156 9.39906 6.32811 9.37762 6.65791 9.37762C7.20599 9.37762 7.56141 9.47595 7.8399 9.68565C8.1396 9.90846 8.32786 10.2636 8.32786 10.7735C8.32786 11.3258 8.12676 11.7071 7.84823 11.9424C7.54435 12.195 7.08178 12.3148 6.51667 12.3148C6.17824 12.3148 5.93848 12.2934 5.77584 12.272ZM10.4492 10.5936V11.1245H9.41286V12.2851H8.75778V9.39906H10.5219V9.93408H9.41286V10.5936H10.4492Z" fill="white"/>
</svg>
