<svg width="16" height="11" viewBox="0 0 16 11" fill="none" xmlns="http://www.w3.org/2000/svg">
<path d="M15.8889 3.15064C15.8509 3.03991 15.7161 2.9538 15.6035 2.9538C15.1162 2.9538 14.6289 2.9538 14.1415 2.9538C14.029 2.9538 13.8942 3.03991 13.8561 3.15064C13.8189 3.25901 13.7911 3.3557 13.7726 3.44664L12.796 0.744846C12.6349 0.299325 12.2084 0 11.7347 0H4.2654C3.79166 0 3.36515 0.299325 3.20399 0.744927L2.22737 3.44696C2.20884 3.35594 2.18103 3.25913 2.14377 3.15064C2.10574 3.03991 1.9709 2.9538 1.85839 2.9538C1.37107 2.9538 0.88375 2.9538 0.396389 2.9538C0.283883 2.9538 0.149039 3.03991 0.11101 3.15064C-0.0370507 3.58172 -0.0369697 3.82851 0.111051 4.25963C0.14908 4.37036 0.283924 4.45647 0.396429 4.45647C0.88379 4.45647 1.37111 4.45647 1.85843 4.45647C1.85981 4.45647 1.86127 4.4561 1.86269 4.45606L1.84063 4.51716C1.54252 4.61621 1.32728 4.89684 1.32728 5.22823V7.49071V7.67716V10.1807C1.32728 10.3798 1.48856 10.541 1.68758 10.541H3.50093C3.69991 10.541 3.86123 10.3798 3.86123 10.1807V8.42679H12.1388V10.1807C12.1388 10.3798 12.3001 10.541 12.4991 10.541H14.3124C14.5114 10.541 14.6727 10.3798 14.6727 10.1807V7.67716V7.49071V5.22823C14.6727 4.89692 14.4576 4.61633 14.1596 4.5172L14.1375 4.45606C14.1388 4.4561 14.1402 4.45643 14.1416 4.45643C14.6289 4.45643 15.1162 4.45643 15.6036 4.45643C15.7161 4.45643 15.8509 4.37032 15.889 4.25959C16.037 3.82851 16.0369 3.58172 15.8889 3.15064ZM4.40336 1.3259H11.5957L12.7352 4.47856H3.26383L4.40336 1.3259ZM4.60397 6.69952H3.08695C2.76147 6.69952 2.49766 6.43571 2.49766 6.11024C2.49766 5.7848 2.76143 5.52095 3.08695 5.52095H4.60397C4.9294 5.52095 5.19325 5.78476 5.19325 6.11024C5.19329 6.43571 4.9294 6.69952 4.60397 6.69952ZM12.9129 6.69952H11.3959C11.0705 6.69952 10.8066 6.43571 10.8066 6.11024C10.8066 5.7848 11.0705 5.52095 11.3959 5.52095H12.9129C13.2384 5.52095 13.5022 5.78476 13.5022 6.11024C13.5022 6.43571 13.2384 6.69952 12.9129 6.69952Z" fill="#4B2679"/>
</svg>
