<svg width="28" height="28" viewBox="0 0 28 28" fill="none" xmlns="http://www.w3.org/2000/svg">
<g clip-path="url(#clip0)">
<path d="M27.8762 27.0616C27.5321 23.2262 23.7454 20.7098 20.1177 21.7848C16.2691 17.115 8.97334 17.3943 5.51397 22.4243C2.73022 22.2512 0.303553 24.3191 0.0265563 27.0889C-0.028482 27.5958 0.372379 27.9988 0.842283 27.9988C28.8195 27.9988 27.1986 28.019 27.4532 27.8789C27.757 27.7198 27.9294 27.3456 27.8762 27.0616Z" fill="url(#paint0_linear)"/>
<path d="M18.4523 16.8751L17.5397 17.7877C13.9476 16.149 9.96354 16.677 7.04634 18.6439C6.05992 16.694 6.37998 14.2469 8.00705 12.6198L11.102 9.52483C11.4226 9.20478 11.9423 9.20478 12.2629 9.52483L14.7774 12.0393L13.1071 13.7091C12.7865 14.0297 12.7865 14.5494 13.1071 14.87C13.4257 15.1886 13.9462 15.1919 14.2681 14.87L15.9384 13.2003L18.4523 15.7142C18.7723 16.0348 18.7723 16.5545 18.4523 16.8751V16.8751Z" fill="url(#paint1_linear)"/>
<path d="M27.7369 3.95418C27.1931 3.41036 24.7746 0.991845 24.0231 0.240348C23.7026 -0.0800887 23.183 -0.0801434 22.8625 0.240348C22.542 0.56084 22.542 1.08042 22.8625 1.40091L24.1389 2.67735L14.7773 12.0394L15.9383 13.2004L25.2999 3.8383L26.5763 5.11474C26.7366 5.27499 26.9466 5.35514 27.1566 5.35514C27.8811 5.35508 28.2554 4.47266 27.7369 3.95418V3.95418Z" fill="url(#paint2_linear)"/>
</g>
<defs>
<linearGradient id="paint0_linear" x1="1.38567" y1="15.1197" x2="30.9734" y2="17.7477" gradientUnits="userSpaceOnUse">
<stop stop-color="#6536A1"/>
<stop offset="1" stop-color="#3F0B81"/>
</linearGradient>
<linearGradient id="paint1_linear" x1="7.08531" y1="6.0091" x2="20.1264" y2="6.52629" gradientUnits="userSpaceOnUse">
<stop stop-color="#6536A1"/>
<stop offset="1" stop-color="#3F0B81"/>
</linearGradient>
<linearGradient id="paint2_linear" x1="15.4236" y1="-4.62014" x2="29.5385" y2="-4.19086" gradientUnits="userSpaceOnUse">
<stop stop-color="#6536A1"/>
<stop offset="1" stop-color="#3F0B81"/>
</linearGradient>
<clipPath id="clip0">
<rect width="28" height="28" fill="white"/>
</clipPath>
</defs>
</svg>
