<svg width="14" height="16" viewBox="0 0 14 16" fill="none" xmlns="http://www.w3.org/2000/svg">
<path d="M0 15.334C0 15.5108 0.0702379 15.6804 0.195262 15.8054C0.320286 15.9304 0.489856 16.0007 0.666667 16.0007H12.6667C12.8435 16.0007 13.013 15.9304 13.1381 15.8054C13.2631 15.6804 13.3333 15.5108 13.3333 15.334V14.0007H0V15.334Z" fill="#4B2679"/>
<path d="M12.6667 0H0.666667C0.489856 0 0.320286 0.0702379 0.195262 0.195262C0.0702379 0.320286 0 0.489856 0 0.666667V13.3333H13.3333V0.666667C13.3333 0.489856 13.2631 0.320286 13.1381 0.195262C13.013 0.0702379 12.8435 0 12.6667 0V0ZM5.33333 1.33333C5.46519 1.33333 5.59408 1.37243 5.70371 1.44569C5.81335 1.51894 5.89879 1.62306 5.94925 1.74488C5.99971 1.8667 6.01291 2.00074 5.98719 2.13006C5.96147 2.25938 5.89797 2.37817 5.80474 2.4714C5.7115 2.56464 5.59271 2.62813 5.46339 2.65386C5.33407 2.67958 5.20003 2.66638 5.07821 2.61592C4.95639 2.56546 4.85227 2.48001 4.77902 2.37038C4.70577 2.26075 4.66667 2.13185 4.66667 2C4.66667 1.82319 4.7369 1.65362 4.86193 1.5286C4.98695 1.40357 5.15652 1.33333 5.33333 1.33333ZM2 2C2 1.86815 2.0391 1.73925 2.11235 1.62962C2.18561 1.51999 2.28973 1.43454 2.41154 1.38408C2.53336 1.33362 2.66741 1.32042 2.79673 1.34614C2.92605 1.37187 3.04484 1.43536 3.13807 1.5286C3.23131 1.62183 3.2948 1.74062 3.32052 1.86994C3.34625 1.99926 3.33305 2.13331 3.28259 2.25512C3.23213 2.37694 3.14668 2.48106 3.03705 2.55431C2.92741 2.62757 2.79852 2.66667 2.66667 2.66667C2.48986 2.66667 2.32029 2.59643 2.19526 2.4714C2.07024 2.34638 2 2.17681 2 2ZM6.66667 12C5.87554 12 5.10218 11.7654 4.44439 11.3259C3.78659 10.8864 3.2739 10.2616 2.97115 9.53073C2.6684 8.79983 2.58918 7.99556 2.74353 7.21964C2.89787 6.44372 3.27883 5.73098 3.83824 5.17157C4.39765 4.61216 5.11038 4.2312 5.88631 4.07686C6.66223 3.92252 7.4665 4.00173 8.1974 4.30448C8.9283 4.60723 9.55302 5.11992 9.99255 5.77772C10.4321 6.43552 10.6667 7.20887 10.6667 8C10.6655 9.0605 10.2437 10.0772 9.49378 10.8271C8.74389 11.577 7.72717 11.9988 6.66667 12ZM11.3333 2.66667H8.66667V1.33333H11.3333V2.66667Z" fill="#4B2679"/>
<path d="M8.80033 6.40044C8.46478 5.95227 7.99667 5.62108 7.46237 5.45382C6.92807 5.28655 6.35467 5.2917 5.82345 5.46853C5.29224 5.64536 4.83015 5.9849 4.5027 6.43902C4.17524 6.89315 3.99902 7.43882 3.99902 7.99869C3.99902 8.55856 4.17524 9.10423 4.5027 9.55836C4.83015 10.0125 5.29224 10.352 5.82345 10.5289C6.35467 10.7057 6.92807 10.7108 7.46237 10.5436C7.99667 10.3763 8.46478 10.0451 8.80033 9.59694C8.55201 9.41099 8.35043 9.16973 8.21158 8.89231C8.07273 8.61488 8.00044 8.30892 8.00044 7.99869C8.00044 7.68846 8.07273 7.3825 8.21158 7.10507C8.35043 6.82765 8.55201 6.58639 8.80033 6.40044Z" fill="#4B2679"/>
</svg>
