<svg width="13" height="16" viewBox="0 0 13 16" fill="none" xmlns="http://www.w3.org/2000/svg">
<path d="M4.88672 0.96582H7.56079V1.41577H8.52649V0.902832C8.52661 0.405029 8.12183 0 7.62427 0H4.82324C4.32568 0 3.9209 0.405029 3.9209 0.902832V1.41577H4.88672V0.96582Z" fill="#4B2679"/>
<path d="M10.7559 5.24219H1.69001C1.4416 5.24219 1.24604 5.4541 1.26606 5.70178L2.02399 15.0739C2.06623 15.597 2.50263 16 3.02692 16H9.41889C9.94318 16 10.3796 15.597 10.4218 15.0737L11.1798 5.70178C11.1999 5.4541 11.0043 5.24219 10.7559 5.24219ZM3.8852 15.0004C3.87507 15.001 3.86494 15.0013 3.85493 15.0013C3.60175 15.0013 3.38923 14.8042 3.37348 14.5481L2.89851 6.85413C2.88215 6.58789 3.08466 6.35876 3.35078 6.34241C3.61603 6.32629 3.84614 6.52832 3.86249 6.79468L4.33735 14.4886C4.35383 14.7549 4.15131 14.9839 3.8852 15.0004ZM6.71125 14.5184C6.71125 14.785 6.49506 15.0012 6.22834 15.0012C5.96162 15.0012 5.74543 14.785 5.74543 14.5184V6.82434C5.74543 6.55762 5.96162 6.34143 6.22834 6.34143C6.49494 6.34143 6.71125 6.55762 6.71125 6.82434V14.5184ZM9.54743 6.85278L9.09394 14.5468C9.07893 14.8033 8.86603 15.0012 8.61237 15.0012C8.60285 15.0012 8.59321 15.001 8.58356 15.0005C8.31733 14.9847 8.1142 14.7562 8.12995 14.49L8.58332 6.7959C8.59895 6.52966 8.82673 6.32654 9.0937 6.34229C9.35993 6.35791 9.56306 6.58655 9.54743 6.85278Z" fill="#4B2679"/>
<path d="M12.4265 3.75317L12.1094 2.80249C12.0257 2.55188 11.7911 2.38281 11.5268 2.38281H0.920272C0.656111 2.38281 0.42137 2.55188 0.337874 2.80249L0.0207355 3.75317C-0.0404217 3.93652 0.0391681 4.12354 0.187728 4.2168C0.248275 4.25476 0.31993 4.27759 0.398665 4.27759H12.0486C12.1273 4.27759 12.1991 4.25476 12.2595 4.21667C12.4081 4.12341 12.4877 3.9364 12.4265 3.75317Z" fill="#4B2679"/>
</svg>
