<svg width="28" height="28" viewBox="0 0 28 28" fill="none" xmlns="http://www.w3.org/2000/svg">
<g clip-path="url(#clip0)">
<path fill-rule="evenodd" clip-rule="evenodd" d="M10.6631 14.8746C10.21 14.8746 9.84277 15.2419 9.84277 15.6949V18.8121C9.84277 19.2639 10.2113 19.6327 10.6631 19.6327H17.3899C17.8417 19.6327 18.2102 19.2642 18.2102 18.8121V15.6949C18.2102 15.2419 17.843 14.8746 17.3899 14.8746H14.9208V15.6845C14.9208 16.1374 14.5536 16.5048 14.1005 16.5048C13.6474 16.5048 13.2802 16.1374 13.2802 15.6845V14.8746H10.6631Z" fill="#542E84"/>
<path fill-rule="evenodd" clip-rule="evenodd" d="M12.4686 21.2732H10.7453V22.0935C10.7453 22.5466 10.3781 22.9138 9.92496 22.9138C9.47186 22.9138 9.10464 22.5466 9.10464 22.0935V21.2732H7.38135C6.92953 21.2732 6.56104 21.6417 6.56104 22.0935V27.1797C6.56104 27.6328 6.92825 28 7.38135 28H12.4686C12.9204 28 13.2889 27.6315 13.2889 27.1797V22.0935C13.2889 21.6417 12.9204 21.2732 12.4686 21.2732Z" fill="#542E84"/>
<path fill-rule="evenodd" clip-rule="evenodd" d="M20.8193 21.2732H19.1049V22.0935C19.1049 22.5466 18.7377 22.9138 18.2846 22.9138C17.8315 22.9138 17.4643 22.5466 17.4643 22.0935V21.2732H15.75C15.2982 21.2732 14.9297 21.6417 14.9297 22.0935V27.1797C14.9297 27.6315 15.2982 28 15.75 28H20.8193C21.2724 28 21.6396 27.6328 21.6396 27.1797V22.0935C21.6396 21.6417 21.2711 21.2732 20.8193 21.2732Z" fill="#542E84"/>
<path fill-rule="evenodd" clip-rule="evenodd" d="M27.5969 6.40321L21.0509 1.92161C21.0321 1.90879 20.8009 1.80647 20.8009 1.80626L14.2109 0.0289101C14.0628 -0.0106103 13.9133 -0.00697864 13.7759 0.0321144L7.19763 1.80626C7.09275 1.83424 6.99811 1.88145 6.91629 1.94319L0.357639 6.43333C0.110904 6.60188 -0.0147064 6.88152 0.00195617 7.15965L0.00216979 27.1806C0.00216979 27.6318 0.368106 27.9977 0.819278 27.9977V28.0009H4.10053C4.55362 28.0009 4.92105 27.6337 4.92105 27.1806V12.2503H23.0777V27.1806C23.0777 27.6337 23.4452 28.0009 23.898 28.0009H27.1795C27.6326 28.0009 27.9998 27.6337 27.9998 27.1806V7.10967C28 6.80888 27.8381 6.54613 27.5969 6.40321ZM19.6324 7.92998H8.36615C7.91327 7.92998 7.54584 7.56255 7.54584 7.10967C7.54584 6.65657 7.91327 6.28914 8.36615 6.28914H19.6324C20.0855 6.28914 20.4527 6.65657 20.4527 7.10967C20.4529 7.56255 20.0855 7.92998 19.6324 7.92998Z" fill="#542E84"/>
</g>
<defs>
<clipPath id="clip0">
<rect width="28" height="28" fill="white"/>
</clipPath>
</defs>
</svg>
