<svg width="16" height="14" viewBox="0 0 16 14" fill="none" xmlns="http://www.w3.org/2000/svg">
<path d="M15.4788 6.13441C15.7667 6.13441 16 5.90106 16 5.61322V3.94475C16 3.65691 15.7667 3.42356 15.4788 3.42356H14.8579V2.189C14.8579 2.09534 14.8327 2.00341 14.7849 1.92291L13.7946 0.255156C13.7008 0.0969999 13.5304 3.12328e-05 13.3465 3.12328e-05C13.1626 3.12328e-05 12.9922 0.0969687 12.8984 0.255156L11.9082 1.92291C11.8604 2.00341 11.8351 2.09534 11.8351 2.189V3.42356H9.51147V2.189C9.51147 2.09534 9.48622 2.00341 9.43841 1.92291L8.44819 0.255156C8.35431 0.0969999 8.18397 3.12328e-05 8.00006 3.12328e-05C7.81616 3.12328e-05 7.64581 0.0969687 7.55194 0.255156L6.56169 1.92291C6.51388 2.00341 6.48863 2.09534 6.48863 2.189V3.42356H4.165V2.189C4.165 2.09534 4.13975 2.00341 4.09194 1.92291L3.10166 0.255125C3.00778 0.0969687 2.83744 0 2.65353 0C2.46962 0 2.29928 0.0969374 2.20541 0.255125L1.21512 1.92287C1.16734 2.00337 1.14209 2.09531 1.14209 2.18897V3.42353H0.521187C0.233344 3.42356 0 3.65691 0 3.94475V5.61322C0 5.90106 0.233344 6.13441 0.521187 6.13441H1.14206V8.38494H0.521187C0.233344 8.38494 0 8.61828 0 8.90613V10.5746C0 10.8624 0.233344 11.0958 0.521187 11.0958H1.14206V12.9772C1.14206 13.2651 1.37541 13.4984 1.66325 13.4984H3.64369C3.93153 13.4984 4.16488 13.2651 4.16488 12.9772V11.0958H6.4885V12.9772C6.4885 13.2651 6.72184 13.4984 7.00969 13.4984H8.99012C9.27797 13.4984 9.51131 13.2651 9.51131 12.9772V11.0958H11.835V12.9772C11.835 13.2651 12.0683 13.4984 12.3562 13.4984H14.3366C14.6244 13.4984 14.8578 13.2651 14.8578 12.9772V11.0958H15.4787C15.7665 11.0958 15.9998 10.8624 15.9998 10.5746V8.90613C15.9998 8.61828 15.7665 8.38494 15.4787 8.38494H14.8578V6.13441H15.4788ZM6.48856 8.38488H4.16494V6.13434H6.48856V8.38488ZM11.8351 8.38494H9.51141V6.13441H11.8351V8.38494Z" fill="#4B2679"/>
</svg>
